<mxfile host="Electron" agent="Mozilla/5.0 (X11; Linux x86_64) AppleWebKit/537.36 (KHTML, like Gecko) draw.io/27.0.5 Chrome/134.0.6998.205 Electron/35.3.0 Safari/537.36" version="27.0.5" pages="7">
  <diagram name="Usecase bậc cao" id="Xkjmin-iUBaFbqHcHyO9">
    <mxGraphModel dx="1146" dy="1204" grid="0" gridSize="10" guides="1" tooltips="1" connect="1" arrows="1" fold="1" page="0" pageScale="1" pageWidth="850" pageHeight="1100" math="0" shadow="0">
      <root>
        <mxCell id="0" />
        <mxCell id="1" parent="0" />
        <mxCell id="nT45az2rkIodl6n0gOx7-7" style="rounded=0;orthogonalLoop=1;jettySize=auto;html=1;endArrow=block;endFill=0;endSize=16;fontSize=19;fontStyle=1;textShadow=1;" parent="1" source="nT45az2rkIodl6n0gOx7-3" target="nT45az2rkIodl6n0gOx7-2" edge="1">
          <mxGeometry relative="1" as="geometry" />
        </mxCell>
        <mxCell id="nT45az2rkIodl6n0gOx7-2" value="Người dùng" style="shape=umlActor;verticalLabelPosition=bottom;verticalAlign=top;html=1;outlineConnect=0;fontSize=19;fontStyle=1;textShadow=1;" parent="1" vertex="1">
          <mxGeometry x="873" y="598" width="30" height="60" as="geometry" />
        </mxCell>
        <mxCell id="nT45az2rkIodl6n0gOx7-3" value="Du khách" style="shape=umlActor;verticalLabelPosition=bottom;verticalAlign=top;html=1;outlineConnect=0;fontSize=19;fontStyle=1;textShadow=1;" parent="1" vertex="1">
          <mxGeometry x="1039" y="428" width="30" height="60" as="geometry" />
        </mxCell>
        <mxCell id="nT45az2rkIodl6n0gOx7-6" style="rounded=0;orthogonalLoop=1;jettySize=auto;html=1;endArrow=block;endFill=0;strokeWidth=1;endSize=16;fontSize=19;fontStyle=1;textShadow=1;" parent="1" source="nT45az2rkIodl6n0gOx7-4" target="nT45az2rkIodl6n0gOx7-2" edge="1">
          <mxGeometry relative="1" as="geometry">
            <mxPoint x="1038" y="338" as="sourcePoint" />
            <mxPoint x="1037.5" y="488" as="targetPoint" />
          </mxGeometry>
        </mxCell>
        <mxCell id="nT45az2rkIodl6n0gOx7-4" value="Chủ khách sạn" style="shape=umlActor;verticalLabelPosition=bottom;verticalAlign=top;html=1;outlineConnect=0;fontSize=19;fontStyle=1;textShadow=1;" parent="1" vertex="1">
          <mxGeometry x="1039" y="105" width="30" height="60" as="geometry" />
        </mxCell>
        <mxCell id="nT45az2rkIodl6n0gOx7-11" value="Chọn ngôn ngữ" style="ellipse;whiteSpace=wrap;html=1;fontSize=19;fillColor=#fad7ac;strokeColor=#b46504;textShadow=1;" parent="1" vertex="1">
          <mxGeometry x="1150" y="942" width="140" height="70" as="geometry" />
        </mxCell>
        <mxCell id="nT45az2rkIodl6n0gOx7-12" value="Tra cứu phòng" style="ellipse;whiteSpace=wrap;html=1;fontSize=19;fillColor=#fad7ac;strokeColor=#b46504;textShadow=1;" parent="1" vertex="1">
          <mxGeometry x="1150" y="689" width="140" height="70" as="geometry" />
        </mxCell>
        <mxCell id="nT45az2rkIodl6n0gOx7-60" style="edgeStyle=none;rounded=0;orthogonalLoop=1;jettySize=auto;html=1;endArrow=open;startFill=0;fontSize=19;textShadow=1;endSize=16;endFill=0;" parent="1" source="nT45az2rkIodl6n0gOx7-13" target="nT45az2rkIodl6n0gOx7-45" edge="1">
          <mxGeometry relative="1" as="geometry" />
        </mxCell>
        <mxCell id="nT45az2rkIodl6n0gOx7-13" value="Cho thuê phòng" style="ellipse;whiteSpace=wrap;html=1;fontSize=19;fillColor=#fad7ac;strokeColor=#b46504;textShadow=1;" parent="1" vertex="1">
          <mxGeometry x="1150" y="16" width="140" height="70" as="geometry" />
        </mxCell>
        <mxCell id="nT45az2rkIodl6n0gOx7-57" style="edgeStyle=none;rounded=0;orthogonalLoop=1;jettySize=auto;html=1;endArrow=open;startFill=0;fontSize=19;textShadow=1;endSize=16;endFill=0;" parent="1" source="nT45az2rkIodl6n0gOx7-14" target="nT45az2rkIodl6n0gOx7-45" edge="1">
          <mxGeometry relative="1" as="geometry" />
        </mxCell>
        <mxCell id="nT45az2rkIodl6n0gOx7-58" style="edgeStyle=none;rounded=0;orthogonalLoop=1;jettySize=auto;html=1;endArrow=open;startFill=0;fontSize=19;textShadow=1;endSize=16;endFill=0;" parent="1" source="nT45az2rkIodl6n0gOx7-14" target="nT45az2rkIodl6n0gOx7-40" edge="1">
          <mxGeometry relative="1" as="geometry" />
        </mxCell>
        <mxCell id="nT45az2rkIodl6n0gOx7-14" value="Theo dõi phòng đã đặt" style="ellipse;whiteSpace=wrap;html=1;fontSize=19;fillColor=#fad7ac;strokeColor=#b46504;textShadow=1;" parent="1" vertex="1">
          <mxGeometry x="1150" y="265" width="140" height="70" as="geometry" />
        </mxCell>
        <mxCell id="nT45az2rkIodl6n0gOx7-59" style="edgeStyle=none;rounded=0;orthogonalLoop=1;jettySize=auto;html=1;endArrow=open;startFill=0;fontSize=19;textShadow=1;endSize=16;endFill=0;" parent="1" source="nT45az2rkIodl6n0gOx7-15" target="nT45az2rkIodl6n0gOx7-40" edge="1">
          <mxGeometry relative="1" as="geometry" />
        </mxCell>
        <mxCell id="nT45az2rkIodl6n0gOx7-62" style="edgeStyle=none;rounded=0;orthogonalLoop=1;jettySize=auto;html=1;endArrow=open;startFill=0;fontSize=19;textShadow=1;endSize=16;endFill=0;" parent="1" source="nT45az2rkIodl6n0gOx7-15" target="nT45az2rkIodl6n0gOx7-45" edge="1">
          <mxGeometry relative="1" as="geometry" />
        </mxCell>
        <mxCell id="nT45az2rkIodl6n0gOx7-15" value="Theo dõi phòng đang cho thuê" style="ellipse;whiteSpace=wrap;html=1;fontSize=19;fillColor=#fad7ac;strokeColor=#b46504;textShadow=1;" parent="1" vertex="1">
          <mxGeometry x="1150" y="155" width="140" height="70" as="geometry" />
        </mxCell>
        <mxCell id="nT45az2rkIodl6n0gOx7-16" value="Tra cứu phương tiện" style="ellipse;whiteSpace=wrap;html=1;fontSize=19;fillColor=#fad7ac;strokeColor=#b46504;textShadow=1;" parent="1" vertex="1">
          <mxGeometry x="1150" y="800" width="140" height="70" as="geometry" />
        </mxCell>
        <mxCell id="nT45az2rkIodl6n0gOx7-32" style="edgeStyle=none;rounded=0;orthogonalLoop=1;jettySize=auto;html=1;endArrow=open;endFill=0;endSize=16;startFill=0;fontSize=19;textShadow=1;" parent="1" source="nT45az2rkIodl6n0gOx7-2" target="nT45az2rkIodl6n0gOx7-11" edge="1">
          <mxGeometry relative="1" as="geometry">
            <mxPoint x="1083" y="540" as="sourcePoint" />
            <mxPoint x="1244" y="458" as="targetPoint" />
          </mxGeometry>
        </mxCell>
        <mxCell id="nT45az2rkIodl6n0gOx7-34" style="edgeStyle=none;rounded=0;orthogonalLoop=1;jettySize=auto;html=1;endArrow=open;endFill=0;endSize=16;startFill=0;fontSize=19;textShadow=1;" parent="1" source="nT45az2rkIodl6n0gOx7-2" target="nT45az2rkIodl6n0gOx7-16" edge="1">
          <mxGeometry relative="1" as="geometry">
            <mxPoint x="1063" y="532" as="sourcePoint" />
            <mxPoint x="1212" y="576" as="targetPoint" />
          </mxGeometry>
        </mxCell>
        <mxCell id="nT45az2rkIodl6n0gOx7-36" style="edgeStyle=none;rounded=0;orthogonalLoop=1;jettySize=auto;html=1;endArrow=open;endFill=0;endSize=16;startFill=0;fontSize=19;textShadow=1;" parent="1" source="nT45az2rkIodl6n0gOx7-2" target="nT45az2rkIodl6n0gOx7-12" edge="1">
          <mxGeometry relative="1" as="geometry">
            <mxPoint x="1073" y="556" as="sourcePoint" />
            <mxPoint x="1256" y="771" as="targetPoint" />
          </mxGeometry>
        </mxCell>
        <mxCell id="nT45az2rkIodl6n0gOx7-37" style="edgeStyle=none;rounded=0;orthogonalLoop=1;jettySize=auto;html=1;endArrow=open;endFill=0;endSize=16;startFill=0;fontSize=19;textShadow=1;" parent="1" source="nT45az2rkIodl6n0gOx7-3" target="nT45az2rkIodl6n0gOx7-14" edge="1">
          <mxGeometry relative="1" as="geometry">
            <mxPoint x="1083" y="566" as="sourcePoint" />
            <mxPoint x="1266" y="781" as="targetPoint" />
          </mxGeometry>
        </mxCell>
        <mxCell id="nT45az2rkIodl6n0gOx7-38" style="edgeStyle=none;rounded=0;orthogonalLoop=1;jettySize=auto;html=1;endArrow=open;endFill=0;endSize=16;startFill=0;fontSize=19;textShadow=1;" parent="1" source="nT45az2rkIodl6n0gOx7-4" target="nT45az2rkIodl6n0gOx7-13" edge="1">
          <mxGeometry relative="1" as="geometry">
            <mxPoint x="1093" y="576" as="sourcePoint" />
            <mxPoint x="1276" y="791" as="targetPoint" />
          </mxGeometry>
        </mxCell>
        <mxCell id="nT45az2rkIodl6n0gOx7-39" style="edgeStyle=none;rounded=0;orthogonalLoop=1;jettySize=auto;html=1;endArrow=open;endFill=0;endSize=16;startFill=0;fontSize=19;textShadow=1;" parent="1" source="nT45az2rkIodl6n0gOx7-4" target="nT45az2rkIodl6n0gOx7-15" edge="1">
          <mxGeometry relative="1" as="geometry">
            <mxPoint x="1103" y="586" as="sourcePoint" />
            <mxPoint x="1286" y="801" as="targetPoint" />
          </mxGeometry>
        </mxCell>
        <mxCell id="nT45az2rkIodl6n0gOx7-40" value="Cơ sở dữ liệu người dùng" style="shape=umlActor;verticalLabelPosition=bottom;verticalAlign=top;html=1;fontSize=19;fontStyle=1;textShadow=1;" parent="1" vertex="1">
          <mxGeometry x="1571" y="265" width="30" height="60" as="geometry" />
        </mxCell>
        <mxCell id="nT45az2rkIodl6n0gOx7-45" value="Cơ sở dữ liệu khách sạn" style="shape=umlActor;verticalLabelPosition=bottom;verticalAlign=top;html=1;fontSize=19;fontStyle=1;textShadow=1;" parent="1" vertex="1">
          <mxGeometry x="1571" y="55" width="30" height="60" as="geometry" />
        </mxCell>
        <mxCell id="nT45az2rkIodl6n0gOx7-55" value="Nhà cung cấp dịch vụ di chuyển" style="shape=umlActor;verticalLabelPosition=bottom;verticalAlign=top;html=1;fontSize=19;fontStyle=1;textShadow=1;" parent="1" vertex="1">
          <mxGeometry x="1571" y="798" width="30" height="60" as="geometry" />
        </mxCell>
        <mxCell id="nT45az2rkIodl6n0gOx7-63" value="Hệ quản trị cơ sở dữ liệu" style="shape=umlActor;verticalLabelPosition=bottom;verticalAlign=top;html=1;fontSize=19;fontStyle=1;textShadow=1;" parent="1" vertex="1">
          <mxGeometry x="1771" y="140" width="30" height="60" as="geometry" />
        </mxCell>
        <mxCell id="nT45az2rkIodl6n0gOx7-65" value="" style="endArrow=block;endSize=16;endFill=0;html=1;rounded=0;fontSize=19;fontStyle=1;textShadow=1;" parent="1" source="nT45az2rkIodl6n0gOx7-40" target="nT45az2rkIodl6n0gOx7-63" edge="1">
          <mxGeometry width="160" relative="1" as="geometry">
            <mxPoint x="1361" y="260" as="sourcePoint" />
            <mxPoint x="1521" y="260" as="targetPoint" />
          </mxGeometry>
        </mxCell>
        <mxCell id="nT45az2rkIodl6n0gOx7-66" value="" style="endArrow=block;endSize=16;endFill=0;html=1;rounded=0;fontSize=19;fontStyle=1;textShadow=1;" parent="1" source="nT45az2rkIodl6n0gOx7-45" target="nT45az2rkIodl6n0gOx7-63" edge="1">
          <mxGeometry width="160" relative="1" as="geometry">
            <mxPoint x="1631" y="179" as="sourcePoint" />
            <mxPoint x="1871" y="166" as="targetPoint" />
          </mxGeometry>
        </mxCell>
        <mxCell id="vQPaoASlv7zoBC4x8T9E-1" value="Thuê phòng" style="ellipse;whiteSpace=wrap;html=1;fontSize=19;fillColor=#fad7ac;strokeColor=#b46504;textShadow=1;" parent="1" vertex="1">
          <mxGeometry x="1512" y="670" width="140" height="70" as="geometry" />
        </mxCell>
        <mxCell id="vQPaoASlv7zoBC4x8T9E-2" style="edgeStyle=none;rounded=0;orthogonalLoop=1;jettySize=auto;html=1;dashed=1;endArrow=open;endFill=0;endSize=16;fontSize=19;textShadow=1;" parent="1" source="vQPaoASlv7zoBC4x8T9E-1" target="nT45az2rkIodl6n0gOx7-12" edge="1">
          <mxGeometry relative="1" as="geometry">
            <mxPoint x="1688.67" y="649.18" as="sourcePoint" />
            <mxPoint x="1452.9969535852156" y="516.9984373838289" as="targetPoint" />
          </mxGeometry>
        </mxCell>
        <mxCell id="vQPaoASlv7zoBC4x8T9E-3" value="&amp;lt;&amp;lt;extend&amp;gt;&amp;gt;" style="edgeLabel;html=1;align=center;verticalAlign=middle;resizable=0;points=[];fontSize=19;textShadow=1;" parent="vQPaoASlv7zoBC4x8T9E-2" vertex="1" connectable="0">
          <mxGeometry x="-0.0832" y="-2" relative="1" as="geometry">
            <mxPoint as="offset" />
          </mxGeometry>
        </mxCell>
        <mxCell id="Rt0C1urc5w88hVw5oKga-1" value="Thuê phương tiện" style="ellipse;whiteSpace=wrap;html=1;fontSize=19;fillColor=#fad7ac;strokeColor=#b46504;textShadow=1;" parent="1" vertex="1">
          <mxGeometry x="1516" y="938" width="140" height="70" as="geometry" />
        </mxCell>
        <mxCell id="Rt0C1urc5w88hVw5oKga-2" style="edgeStyle=none;rounded=0;orthogonalLoop=1;jettySize=auto;html=1;dashed=1;endArrow=open;endFill=0;endSize=16;fontSize=19;textShadow=1;" parent="1" source="Rt0C1urc5w88hVw5oKga-1" target="nT45az2rkIodl6n0gOx7-16" edge="1">
          <mxGeometry relative="1" as="geometry">
            <mxPoint x="1690" y="354" as="sourcePoint" />
            <mxPoint x="1322" y="445" as="targetPoint" />
          </mxGeometry>
        </mxCell>
        <mxCell id="Rt0C1urc5w88hVw5oKga-3" value="&amp;lt;&amp;lt;extend&amp;gt;&amp;gt;" style="edgeLabel;html=1;align=center;verticalAlign=middle;resizable=0;points=[];fontSize=19;textShadow=1;" parent="Rt0C1urc5w88hVw5oKga-2" vertex="1" connectable="0">
          <mxGeometry x="-0.0832" y="-2" relative="1" as="geometry">
            <mxPoint as="offset" />
          </mxGeometry>
        </mxCell>
        <mxCell id="FCmKi4oOmhPvggS7u7e1-1" value="Thanh toán" style="ellipse;whiteSpace=wrap;html=1;fontSize=19;fillColor=#fad7ac;strokeColor=#b46504;textShadow=1;" parent="1" vertex="1">
          <mxGeometry x="1153" y="413" width="140" height="70" as="geometry" />
        </mxCell>
        <mxCell id="FCmKi4oOmhPvggS7u7e1-2" style="edgeStyle=none;rounded=0;orthogonalLoop=1;jettySize=auto;html=1;dashed=1;endArrow=open;endFill=0;endSize=16;fontSize=19;textShadow=1;" parent="1" source="FCmKi4oOmhPvggS7u7e1-1" target="9odK01dchXX-sC7LY4uj-1" edge="1">
          <mxGeometry relative="1" as="geometry">
            <mxPoint x="1494" y="447" as="sourcePoint" />
            <mxPoint x="1307" y="276" as="targetPoint" />
          </mxGeometry>
        </mxCell>
        <mxCell id="FCmKi4oOmhPvggS7u7e1-3" value="&amp;lt;&amp;lt;extend&amp;gt;&amp;gt;" style="edgeLabel;html=1;align=center;verticalAlign=middle;resizable=0;points=[];fontSize=19;textShadow=1;" parent="FCmKi4oOmhPvggS7u7e1-2" vertex="1" connectable="0">
          <mxGeometry x="-0.0832" y="-2" relative="1" as="geometry">
            <mxPoint as="offset" />
          </mxGeometry>
        </mxCell>
        <mxCell id="FCmKi4oOmhPvggS7u7e1-4" style="edgeStyle=none;rounded=0;orthogonalLoop=1;jettySize=auto;html=1;dashed=1;endArrow=open;endFill=0;endSize=16;fontSize=19;textShadow=1;" parent="1" source="FCmKi4oOmhPvggS7u7e1-1" target="nT45az2rkIodl6n0gOx7-14" edge="1">
          <mxGeometry relative="1" as="geometry">
            <mxPoint x="1474" y="275" as="sourcePoint" />
            <mxPoint x="1321" y="351" as="targetPoint" />
          </mxGeometry>
        </mxCell>
        <mxCell id="FCmKi4oOmhPvggS7u7e1-5" value="&amp;lt;&amp;lt;extend&amp;gt;&amp;gt;" style="edgeLabel;html=1;align=center;verticalAlign=middle;resizable=0;points=[];fontSize=19;textShadow=1;" parent="FCmKi4oOmhPvggS7u7e1-4" vertex="1" connectable="0">
          <mxGeometry x="-0.0832" y="-2" relative="1" as="geometry">
            <mxPoint as="offset" />
          </mxGeometry>
        </mxCell>
        <mxCell id="9odK01dchXX-sC7LY4uj-1" value="Theo dõi phương tiện đã thuê" style="ellipse;whiteSpace=wrap;html=1;fontSize=19;fillColor=#fad7ac;strokeColor=#b46504;textShadow=1;" parent="1" vertex="1">
          <mxGeometry x="1150" y="560" width="140" height="70" as="geometry" />
        </mxCell>
        <mxCell id="9odK01dchXX-sC7LY4uj-2" style="edgeStyle=none;rounded=0;orthogonalLoop=1;jettySize=auto;html=1;endArrow=open;endFill=0;endSize=16;startFill=0;fontSize=19;textShadow=1;" parent="1" source="nT45az2rkIodl6n0gOx7-3" target="9odK01dchXX-sC7LY4uj-1" edge="1">
          <mxGeometry relative="1" as="geometry">
            <mxPoint x="1090" y="509" as="sourcePoint" />
            <mxPoint x="1197" y="508" as="targetPoint" />
          </mxGeometry>
        </mxCell>
        <mxCell id="m_gRPibcPbQyxslRVUvf-3" value="Hệ thống thanh toán" style="shape=umlActor;verticalLabelPosition=bottom;verticalAlign=top;html=1;fontSize=19;fontStyle=1;textShadow=1;" parent="1" vertex="1">
          <mxGeometry x="1571" y="402" width="30" height="60" as="geometry" />
        </mxCell>
        <mxCell id="m_gRPibcPbQyxslRVUvf-4" value="Google map API" style="shape=umlActor;verticalLabelPosition=bottom;verticalAlign=top;html=1;fontSize=19;fontStyle=1;textShadow=1;" parent="1" vertex="1">
          <mxGeometry x="1571" y="545" width="30" height="60" as="geometry" />
        </mxCell>
        <mxCell id="m_gRPibcPbQyxslRVUvf-7" style="edgeStyle=none;rounded=0;orthogonalLoop=1;jettySize=auto;html=1;endArrow=open;startFill=0;fontSize=19;textShadow=1;endFill=0;endSize=16;" parent="1" source="nT45az2rkIodl6n0gOx7-3" target="FCmKi4oOmhPvggS7u7e1-1" edge="1">
          <mxGeometry relative="1" as="geometry">
            <mxPoint x="1300" y="309" as="sourcePoint" />
            <mxPoint x="1581" y="305" as="targetPoint" />
          </mxGeometry>
        </mxCell>
        <mxCell id="mxuxEoYHXNUOPg-CpBEb-1" style="edgeStyle=none;rounded=0;orthogonalLoop=1;jettySize=auto;html=1;endArrow=open;startFill=0;fontSize=19;textShadow=1;endSize=16;endFill=0;" edge="1" parent="1" source="FCmKi4oOmhPvggS7u7e1-1" target="m_gRPibcPbQyxslRVUvf-3">
          <mxGeometry relative="1" as="geometry">
            <mxPoint x="1305" y="366" as="sourcePoint" />
            <mxPoint x="1581" y="305" as="targetPoint" />
          </mxGeometry>
        </mxCell>
        <mxCell id="mxuxEoYHXNUOPg-CpBEb-2" style="edgeStyle=none;rounded=0;orthogonalLoop=1;jettySize=auto;html=1;endArrow=open;startFill=0;fontSize=19;textShadow=1;endSize=16;endFill=0;exitX=1;exitY=0;exitDx=0;exitDy=0;" edge="1" parent="1" source="nT45az2rkIodl6n0gOx7-12" target="nT45az2rkIodl6n0gOx7-45">
          <mxGeometry relative="1" as="geometry">
            <mxPoint x="1310" y="319" as="sourcePoint" />
            <mxPoint x="1591" y="315" as="targetPoint" />
          </mxGeometry>
        </mxCell>
        <mxCell id="mxuxEoYHXNUOPg-CpBEb-3" style="edgeStyle=none;rounded=0;orthogonalLoop=1;jettySize=auto;html=1;endArrow=open;startFill=0;fontSize=19;textShadow=1;endSize=16;endFill=0;" edge="1" parent="1" source="nT45az2rkIodl6n0gOx7-12" target="m_gRPibcPbQyxslRVUvf-4">
          <mxGeometry relative="1" as="geometry">
            <mxPoint x="1320" y="329" as="sourcePoint" />
            <mxPoint x="1601" y="325" as="targetPoint" />
          </mxGeometry>
        </mxCell>
        <mxCell id="mxuxEoYHXNUOPg-CpBEb-4" style="edgeStyle=none;rounded=0;orthogonalLoop=1;jettySize=auto;html=1;endArrow=open;startFill=0;fontSize=19;textShadow=1;endSize=16;endFill=0;" edge="1" parent="1" source="9odK01dchXX-sC7LY4uj-1" target="nT45az2rkIodl6n0gOx7-55">
          <mxGeometry relative="1" as="geometry">
            <mxPoint x="1330" y="339" as="sourcePoint" />
            <mxPoint x="1611" y="335" as="targetPoint" />
          </mxGeometry>
        </mxCell>
        <mxCell id="mxuxEoYHXNUOPg-CpBEb-5" style="edgeStyle=none;rounded=0;orthogonalLoop=1;jettySize=auto;html=1;endArrow=open;startFill=0;fontSize=19;textShadow=1;endSize=16;endFill=0;" edge="1" parent="1" source="nT45az2rkIodl6n0gOx7-16" target="nT45az2rkIodl6n0gOx7-55">
          <mxGeometry relative="1" as="geometry">
            <mxPoint x="1340" y="349" as="sourcePoint" />
            <mxPoint x="1621" y="345" as="targetPoint" />
          </mxGeometry>
        </mxCell>
      </root>
    </mxGraphModel>
  </diagram>
  <diagram id="WVBvfr4iS5B7mOWqgHLc" name="Use case dưới góc nhìn người sử dụng">
    <mxGraphModel dx="562" dy="1243" grid="0" gridSize="10" guides="1" tooltips="1" connect="1" arrows="1" fold="1" page="0" pageScale="1" pageWidth="850" pageHeight="1100" math="0" shadow="0">
      <root>
        <mxCell id="0" />
        <mxCell id="1" parent="0" />
        <mxCell id="XmxRfXGQkaJ-KOJUpbj6-1" style="rounded=0;orthogonalLoop=1;jettySize=auto;html=1;endArrow=block;endFill=0;endSize=16;fontSize=19;fontStyle=1;textShadow=1;" parent="1" source="XmxRfXGQkaJ-KOJUpbj6-4" target="XmxRfXGQkaJ-KOJUpbj6-3" edge="1">
          <mxGeometry relative="1" as="geometry" />
        </mxCell>
        <mxCell id="XmxRfXGQkaJ-KOJUpbj6-2" style="edgeStyle=none;rounded=0;orthogonalLoop=1;jettySize=auto;html=1;endArrow=open;endFill=0;endSize=16;startFill=0;fontSize=19;textShadow=1;" parent="1" source="XmxRfXGQkaJ-KOJUpbj6-3" target="XmxRfXGQkaJ-KOJUpbj6-8" edge="1">
          <mxGeometry relative="1" as="geometry" />
        </mxCell>
        <mxCell id="XmxRfXGQkaJ-KOJUpbj6-3" value="Người dùng" style="shape=umlActor;verticalLabelPosition=bottom;verticalAlign=top;html=1;outlineConnect=0;fontSize=19;fontStyle=1;textShadow=1;" parent="1" vertex="1">
          <mxGeometry x="889" y="598" width="30" height="60" as="geometry" />
        </mxCell>
        <mxCell id="XmxRfXGQkaJ-KOJUpbj6-4" value="Du khách" style="shape=umlActor;verticalLabelPosition=bottom;verticalAlign=top;html=1;outlineConnect=0;fontSize=19;fontStyle=1;textShadow=1;" parent="1" vertex="1">
          <mxGeometry x="980" y="263" width="30" height="60" as="geometry" />
        </mxCell>
        <mxCell id="XmxRfXGQkaJ-KOJUpbj6-5" style="rounded=0;orthogonalLoop=1;jettySize=auto;html=1;endArrow=block;endFill=0;strokeWidth=1;endSize=16;fontSize=19;fontStyle=1;textShadow=1;" parent="1" source="XmxRfXGQkaJ-KOJUpbj6-6" target="XmxRfXGQkaJ-KOJUpbj6-3" edge="1">
          <mxGeometry relative="1" as="geometry">
            <mxPoint x="965" y="346" as="sourcePoint" />
            <mxPoint x="964.5" y="496" as="targetPoint" />
          </mxGeometry>
        </mxCell>
        <mxCell id="XmxRfXGQkaJ-KOJUpbj6-6" value="Chủ khách sạn" style="shape=umlActor;verticalLabelPosition=bottom;verticalAlign=top;html=1;outlineConnect=0;fontSize=19;fontStyle=1;textShadow=1;" parent="1" vertex="1">
          <mxGeometry x="983" y="-24" width="30" height="60" as="geometry" />
        </mxCell>
        <mxCell id="XmxRfXGQkaJ-KOJUpbj6-7" value="Đăng nhập" style="ellipse;whiteSpace=wrap;html=1;fontSize=19;fillColor=#fad7ac;strokeColor=#b46504;textShadow=1;" parent="1" vertex="1">
          <mxGeometry x="1182" y="624" width="140" height="70" as="geometry" />
        </mxCell>
        <mxCell id="XmxRfXGQkaJ-KOJUpbj6-8" value="Đăng kí" style="ellipse;whiteSpace=wrap;html=1;fontSize=19;fillColor=#fad7ac;strokeColor=#b46504;textShadow=1;" parent="1" vertex="1">
          <mxGeometry x="1179" y="718" width="140" height="70" as="geometry" />
        </mxCell>
        <mxCell id="XmxRfXGQkaJ-KOJUpbj6-9" value="Đăng xuất" style="ellipse;whiteSpace=wrap;html=1;fontSize=19;fillColor=#fad7ac;strokeColor=#b46504;textShadow=1;" parent="1" vertex="1">
          <mxGeometry x="1185" y="804" width="140" height="70" as="geometry" />
        </mxCell>
        <mxCell id="XmxRfXGQkaJ-KOJUpbj6-10" value="Chọn ngôn ngữ" style="ellipse;whiteSpace=wrap;html=1;fontSize=19;fillColor=#fad7ac;strokeColor=#b46504;textShadow=1;" parent="1" vertex="1">
          <mxGeometry x="1185" y="898" width="140" height="70" as="geometry" />
        </mxCell>
        <mxCell id="XmxRfXGQkaJ-KOJUpbj6-11" value="Tra cứu phòng" style="ellipse;whiteSpace=wrap;html=1;fontSize=19;fillColor=#fad7ac;strokeColor=#b46504;textShadow=1;" parent="1" vertex="1">
          <mxGeometry x="1182" y="522" width="140" height="70" as="geometry" />
        </mxCell>
        <mxCell id="XmxRfXGQkaJ-KOJUpbj6-13" value="Cho thuê phòng" style="ellipse;whiteSpace=wrap;html=1;fontSize=19;fillColor=#fad7ac;strokeColor=#b46504;textShadow=1;" parent="1" vertex="1">
          <mxGeometry x="1179" y="-34" width="140" height="70" as="geometry" />
        </mxCell>
        <mxCell id="XmxRfXGQkaJ-KOJUpbj6-15" value="Theo dõi phòng đã đặt" style="ellipse;whiteSpace=wrap;html=1;fontSize=19;fillColor=#fad7ac;strokeColor=#b46504;textShadow=1;" parent="1" vertex="1">
          <mxGeometry x="1182" y="60" width="140" height="70" as="geometry" />
        </mxCell>
        <mxCell id="XmxRfXGQkaJ-KOJUpbj6-18" value="Theo dõi phòng đang cho thuê" style="ellipse;whiteSpace=wrap;html=1;fontSize=19;fillColor=#fad7ac;strokeColor=#b46504;textShadow=1;" parent="1" vertex="1">
          <mxGeometry x="1179" y="-139" width="140" height="70" as="geometry" />
        </mxCell>
        <mxCell id="XmxRfXGQkaJ-KOJUpbj6-19" value="Tra cứu phương tiện" style="ellipse;whiteSpace=wrap;html=1;fontSize=19;fillColor=#fad7ac;strokeColor=#b46504;textShadow=1;" parent="1" vertex="1">
          <mxGeometry x="1185" y="420" width="140" height="70" as="geometry" />
        </mxCell>
        <mxCell id="XmxRfXGQkaJ-KOJUpbj6-20" style="edgeStyle=none;rounded=0;orthogonalLoop=1;jettySize=auto;html=1;endArrow=open;endFill=0;endSize=16;startFill=0;fontSize=19;textShadow=1;" parent="1" source="XmxRfXGQkaJ-KOJUpbj6-3" target="XmxRfXGQkaJ-KOJUpbj6-7" edge="1">
          <mxGeometry relative="1" as="geometry">
            <mxPoint x="1073" y="530" as="sourcePoint" />
            <mxPoint x="1234" y="448" as="targetPoint" />
          </mxGeometry>
        </mxCell>
        <mxCell id="XmxRfXGQkaJ-KOJUpbj6-21" style="edgeStyle=none;rounded=0;orthogonalLoop=1;jettySize=auto;html=1;endArrow=open;endFill=0;endSize=16;startFill=0;fontSize=19;textShadow=1;" parent="1" source="XmxRfXGQkaJ-KOJUpbj6-3" target="XmxRfXGQkaJ-KOJUpbj6-9" edge="1">
          <mxGeometry relative="1" as="geometry">
            <mxPoint x="1083" y="540" as="sourcePoint" />
            <mxPoint x="1244" y="458" as="targetPoint" />
          </mxGeometry>
        </mxCell>
        <mxCell id="XmxRfXGQkaJ-KOJUpbj6-22" style="edgeStyle=none;rounded=0;orthogonalLoop=1;jettySize=auto;html=1;endArrow=open;endFill=0;endSize=16;startFill=0;fontSize=19;textShadow=1;" parent="1" source="XmxRfXGQkaJ-KOJUpbj6-3" target="XmxRfXGQkaJ-KOJUpbj6-10" edge="1">
          <mxGeometry relative="1" as="geometry">
            <mxPoint x="1093" y="550" as="sourcePoint" />
            <mxPoint x="1254" y="468" as="targetPoint" />
          </mxGeometry>
        </mxCell>
        <mxCell id="XmxRfXGQkaJ-KOJUpbj6-37" value="Thanh toán" style="ellipse;whiteSpace=wrap;html=1;fontSize=19;fillColor=#fad7ac;strokeColor=#b46504;textShadow=1;" parent="1" vertex="1">
          <mxGeometry x="1182" y="193" width="140" height="70" as="geometry" />
        </mxCell>
        <mxCell id="XmxRfXGQkaJ-KOJUpbj6-38" value="Thanh toán bằng ATM" style="ellipse;whiteSpace=wrap;html=1;fontSize=19;fillColor=#fad7ac;strokeColor=#b46504;textShadow=1;" parent="1" vertex="1">
          <mxGeometry x="1418" y="117" width="140" height="70" as="geometry" />
        </mxCell>
        <mxCell id="XmxRfXGQkaJ-KOJUpbj6-39" value="Thanh toán trực tiếp" style="ellipse;whiteSpace=wrap;html=1;fontSize=19;fillColor=#fad7ac;strokeColor=#b46504;textShadow=1;" parent="1" vertex="1">
          <mxGeometry x="1418" y="237" width="140" height="70" as="geometry" />
        </mxCell>
        <mxCell id="XmxRfXGQkaJ-KOJUpbj6-40" value="Xem hóa đơn" style="ellipse;whiteSpace=wrap;html=1;fontSize=19;fillColor=#fad7ac;strokeColor=#b46504;textShadow=1;" parent="1" vertex="1">
          <mxGeometry x="1706" y="184" width="140" height="70" as="geometry" />
        </mxCell>
        <mxCell id="XmxRfXGQkaJ-KOJUpbj6-41" style="edgeStyle=none;rounded=0;orthogonalLoop=1;jettySize=auto;html=1;dashed=1;endArrow=open;endFill=0;endSize=16;fontSize=19;textShadow=1;" parent="1" source="XmxRfXGQkaJ-KOJUpbj6-40" target="XmxRfXGQkaJ-KOJUpbj6-38" edge="1">
          <mxGeometry relative="1" as="geometry">
            <mxPoint x="1515" y="182.5" as="sourcePoint" />
            <mxPoint x="1585" y="281.5" as="targetPoint" />
          </mxGeometry>
        </mxCell>
        <mxCell id="XmxRfXGQkaJ-KOJUpbj6-42" value="&amp;lt;&amp;lt;extend&amp;gt;&amp;gt;" style="edgeLabel;html=1;align=center;verticalAlign=middle;resizable=0;points=[];fontSize=19;textShadow=1;" parent="XmxRfXGQkaJ-KOJUpbj6-41" vertex="1" connectable="0">
          <mxGeometry x="-0.0832" y="-2" relative="1" as="geometry">
            <mxPoint as="offset" />
          </mxGeometry>
        </mxCell>
        <mxCell id="XmxRfXGQkaJ-KOJUpbj6-43" style="edgeStyle=none;rounded=0;orthogonalLoop=1;jettySize=auto;html=1;dashed=1;endArrow=open;endFill=0;endSize=16;fontSize=19;textShadow=1;" parent="1" source="XmxRfXGQkaJ-KOJUpbj6-40" target="XmxRfXGQkaJ-KOJUpbj6-39" edge="1">
          <mxGeometry relative="1" as="geometry">
            <mxPoint x="1525" y="192.5" as="sourcePoint" />
            <mxPoint x="1372" y="159.5" as="targetPoint" />
          </mxGeometry>
        </mxCell>
        <mxCell id="XmxRfXGQkaJ-KOJUpbj6-44" value="&amp;lt;&amp;lt;extend&amp;gt;&amp;gt;" style="edgeLabel;html=1;align=center;verticalAlign=middle;resizable=0;points=[];fontSize=19;textShadow=1;" parent="XmxRfXGQkaJ-KOJUpbj6-43" vertex="1" connectable="0">
          <mxGeometry x="-0.0832" y="-2" relative="1" as="geometry">
            <mxPoint as="offset" />
          </mxGeometry>
        </mxCell>
        <mxCell id="XmxRfXGQkaJ-KOJUpbj6-45" style="rounded=0;orthogonalLoop=1;jettySize=auto;html=1;endArrow=block;endFill=0;endSize=16;fontSize=19;fontStyle=1;textShadow=1;" parent="1" source="XmxRfXGQkaJ-KOJUpbj6-38" target="XmxRfXGQkaJ-KOJUpbj6-37" edge="1">
          <mxGeometry relative="1" as="geometry">
            <mxPoint x="1269" y="-118" as="sourcePoint" />
            <mxPoint x="1119" y="124" as="targetPoint" />
          </mxGeometry>
        </mxCell>
        <mxCell id="XmxRfXGQkaJ-KOJUpbj6-46" style="rounded=0;orthogonalLoop=1;jettySize=auto;html=1;endArrow=block;endFill=0;endSize=16;fontSize=19;fontStyle=1;textShadow=1;" parent="1" source="XmxRfXGQkaJ-KOJUpbj6-39" target="XmxRfXGQkaJ-KOJUpbj6-37" edge="1">
          <mxGeometry relative="1" as="geometry">
            <mxPoint x="1279" y="-108" as="sourcePoint" />
            <mxPoint x="1719" y="278" as="targetPoint" />
          </mxGeometry>
        </mxCell>
        <mxCell id="XmxRfXGQkaJ-KOJUpbj6-47" style="edgeStyle=none;rounded=0;orthogonalLoop=1;jettySize=auto;html=1;dashed=1;endArrow=open;endFill=0;endSize=16;fontSize=19;textShadow=1;" parent="1" source="XmxRfXGQkaJ-KOJUpbj6-37" target="XmxRfXGQkaJ-KOJUpbj6-15" edge="1">
          <mxGeometry relative="1" as="geometry">
            <mxPoint x="1494" y="447" as="sourcePoint" />
            <mxPoint x="1313" y="536" as="targetPoint" />
          </mxGeometry>
        </mxCell>
        <mxCell id="XmxRfXGQkaJ-KOJUpbj6-48" value="&amp;lt;&amp;lt;extend&amp;gt;&amp;gt;" style="edgeLabel;html=1;align=center;verticalAlign=middle;resizable=0;points=[];fontSize=19;textShadow=1;" parent="XmxRfXGQkaJ-KOJUpbj6-47" vertex="1" connectable="0">
          <mxGeometry x="-0.0832" y="-2" relative="1" as="geometry">
            <mxPoint as="offset" />
          </mxGeometry>
        </mxCell>
        <mxCell id="XmxRfXGQkaJ-KOJUpbj6-49" style="edgeStyle=none;rounded=0;orthogonalLoop=1;jettySize=auto;html=1;dashed=1;endArrow=open;endFill=0;endSize=16;fontSize=19;textShadow=1;" parent="1" source="XmxRfXGQkaJ-KOJUpbj6-37" target="XmxRfXGQkaJ-KOJUpbj6-77" edge="1">
          <mxGeometry relative="1" as="geometry">
            <mxPoint x="1474" y="275" as="sourcePoint" />
            <mxPoint x="1333" y="268" as="targetPoint" />
          </mxGeometry>
        </mxCell>
        <mxCell id="XmxRfXGQkaJ-KOJUpbj6-50" value="&amp;lt;&amp;lt;extend&amp;gt;&amp;gt;" style="edgeLabel;html=1;align=center;verticalAlign=middle;resizable=0;points=[];fontSize=19;textShadow=1;" parent="XmxRfXGQkaJ-KOJUpbj6-49" vertex="1" connectable="0">
          <mxGeometry x="-0.0832" y="-2" relative="1" as="geometry">
            <mxPoint as="offset" />
          </mxGeometry>
        </mxCell>
        <mxCell id="XmxRfXGQkaJ-KOJUpbj6-51" value="Thuê phòng" style="ellipse;whiteSpace=wrap;html=1;fontSize=19;fillColor=#fad7ac;strokeColor=#b46504;textShadow=1;" parent="1" vertex="1">
          <mxGeometry x="1487" y="533" width="140" height="70" as="geometry" />
        </mxCell>
        <mxCell id="XmxRfXGQkaJ-KOJUpbj6-52" style="edgeStyle=none;rounded=0;orthogonalLoop=1;jettySize=auto;html=1;dashed=1;endArrow=open;endFill=0;endSize=16;fontSize=19;textShadow=1;" parent="1" source="XmxRfXGQkaJ-KOJUpbj6-51" target="XmxRfXGQkaJ-KOJUpbj6-11" edge="1">
          <mxGeometry relative="1" as="geometry">
            <mxPoint x="1495" y="321" as="sourcePoint" />
            <mxPoint x="1309" y="221" as="targetPoint" />
          </mxGeometry>
        </mxCell>
        <mxCell id="XmxRfXGQkaJ-KOJUpbj6-53" value="&amp;lt;&amp;lt;extend&amp;gt;&amp;gt;" style="edgeLabel;html=1;align=center;verticalAlign=middle;resizable=0;points=[];fontSize=19;textShadow=1;" parent="XmxRfXGQkaJ-KOJUpbj6-52" vertex="1" connectable="0">
          <mxGeometry x="-0.0832" y="-2" relative="1" as="geometry">
            <mxPoint as="offset" />
          </mxGeometry>
        </mxCell>
        <mxCell id="XmxRfXGQkaJ-KOJUpbj6-73" value="Thuê phương tiện" style="ellipse;whiteSpace=wrap;html=1;fontSize=19;fillColor=#fad7ac;strokeColor=#b46504;textShadow=1;" parent="1" vertex="1">
          <mxGeometry x="1487" y="420" width="140" height="70" as="geometry" />
        </mxCell>
        <mxCell id="XmxRfXGQkaJ-KOJUpbj6-74" style="edgeStyle=none;rounded=0;orthogonalLoop=1;jettySize=auto;html=1;dashed=1;endArrow=open;endFill=0;endSize=16;fontSize=19;textShadow=1;" parent="1" source="XmxRfXGQkaJ-KOJUpbj6-73" target="XmxRfXGQkaJ-KOJUpbj6-19" edge="1">
          <mxGeometry relative="1" as="geometry">
            <mxPoint x="1690" y="354" as="sourcePoint" />
            <mxPoint x="1587" y="400" as="targetPoint" />
          </mxGeometry>
        </mxCell>
        <mxCell id="XmxRfXGQkaJ-KOJUpbj6-75" value="&amp;lt;&amp;lt;extend&amp;gt;&amp;gt;" style="edgeLabel;html=1;align=center;verticalAlign=middle;resizable=0;points=[];fontSize=19;textShadow=1;" parent="XmxRfXGQkaJ-KOJUpbj6-74" vertex="1" connectable="0">
          <mxGeometry x="-0.0832" y="-2" relative="1" as="geometry">
            <mxPoint as="offset" />
          </mxGeometry>
        </mxCell>
        <mxCell id="XmxRfXGQkaJ-KOJUpbj6-77" value="Theo dõi phương tiện đã thuê" style="ellipse;whiteSpace=wrap;html=1;fontSize=19;fillColor=#fad7ac;strokeColor=#b46504;textShadow=1;" parent="1" vertex="1">
          <mxGeometry x="1182" y="323" width="140" height="70" as="geometry" />
        </mxCell>
        <mxCell id="nSI7qAg6i61oAcBG-V2q-1" value="Chọn tiiếng anh" style="ellipse;whiteSpace=wrap;html=1;fontSize=19;fillColor=#fad7ac;strokeColor=#b46504;textShadow=1;" parent="1" vertex="1">
          <mxGeometry x="1413" y="818" width="140" height="70" as="geometry" />
        </mxCell>
        <mxCell id="nSI7qAg6i61oAcBG-V2q-2" value="Chọn tiếng việt" style="ellipse;whiteSpace=wrap;html=1;fontSize=19;fillColor=#fad7ac;strokeColor=#b46504;textShadow=1;" parent="1" vertex="1">
          <mxGeometry x="1422" y="930" width="140" height="70" as="geometry" />
        </mxCell>
        <mxCell id="nSI7qAg6i61oAcBG-V2q-3" style="rounded=0;orthogonalLoop=1;jettySize=auto;html=1;endArrow=block;endFill=0;strokeWidth=1;endSize=16;fontSize=19;fontStyle=1;textShadow=1;" parent="1" source="nSI7qAg6i61oAcBG-V2q-1" target="XmxRfXGQkaJ-KOJUpbj6-10" edge="1">
          <mxGeometry relative="1" as="geometry">
            <mxPoint x="1082" y="58" as="sourcePoint" />
            <mxPoint x="1319" y="787" as="targetPoint" />
          </mxGeometry>
        </mxCell>
        <mxCell id="nSI7qAg6i61oAcBG-V2q-4" style="rounded=0;orthogonalLoop=1;jettySize=auto;html=1;endArrow=block;endFill=0;strokeWidth=1;endSize=16;fontSize=19;fontStyle=1;textShadow=1;" parent="1" source="nSI7qAg6i61oAcBG-V2q-2" target="XmxRfXGQkaJ-KOJUpbj6-10" edge="1">
          <mxGeometry relative="1" as="geometry">
            <mxPoint x="1483" y="812" as="sourcePoint" />
            <mxPoint x="1319" y="807" as="targetPoint" />
          </mxGeometry>
        </mxCell>
        <mxCell id="WZFnN_2Gvd1TxNMvGX5P-3" value="Xem danh sách yêu thích" style="ellipse;whiteSpace=wrap;html=1;fontSize=19;fillColor=#fad7ac;strokeColor=#b46504;textShadow=1;" parent="1" vertex="1">
          <mxGeometry x="1185" y="1007" width="140" height="70" as="geometry" />
        </mxCell>
        <mxCell id="WZFnN_2Gvd1TxNMvGX5P-4" style="edgeStyle=none;rounded=0;orthogonalLoop=1;jettySize=auto;html=1;endArrow=open;endFill=0;endSize=16;startFill=0;fontSize=19;textShadow=1;" parent="1" source="XmxRfXGQkaJ-KOJUpbj6-3" target="WZFnN_2Gvd1TxNMvGX5P-3" edge="1">
          <mxGeometry relative="1" as="geometry">
            <mxPoint x="929" y="651" as="sourcePoint" />
            <mxPoint x="1230" y="913" as="targetPoint" />
          </mxGeometry>
        </mxCell>
        <mxCell id="zido_r1NeYuk4-eKhUF_-1" style="edgeStyle=none;rounded=0;orthogonalLoop=1;jettySize=auto;html=1;endArrow=open;endFill=0;endSize=16;startFill=0;fontSize=19;textShadow=1;" edge="1" parent="1" source="XmxRfXGQkaJ-KOJUpbj6-6" target="XmxRfXGQkaJ-KOJUpbj6-18">
          <mxGeometry relative="1" as="geometry">
            <mxPoint x="1069" y="127" as="sourcePoint" />
            <mxPoint x="1171" y="76" as="targetPoint" />
          </mxGeometry>
        </mxCell>
        <mxCell id="zido_r1NeYuk4-eKhUF_-3" style="edgeStyle=none;rounded=0;orthogonalLoop=1;jettySize=auto;html=1;endArrow=open;endFill=0;endSize=16;startFill=0;fontSize=19;textShadow=1;" edge="1" parent="1" source="XmxRfXGQkaJ-KOJUpbj6-6" target="XmxRfXGQkaJ-KOJUpbj6-13">
          <mxGeometry relative="1" as="geometry">
            <mxPoint x="1079" y="137" as="sourcePoint" />
            <mxPoint x="1181" y="86" as="targetPoint" />
          </mxGeometry>
        </mxCell>
        <mxCell id="zido_r1NeYuk4-eKhUF_-4" style="edgeStyle=none;rounded=0;orthogonalLoop=1;jettySize=auto;html=1;endArrow=open;endFill=0;endSize=16;startFill=0;fontSize=19;textShadow=1;" edge="1" parent="1" source="XmxRfXGQkaJ-KOJUpbj6-4" target="XmxRfXGQkaJ-KOJUpbj6-15">
          <mxGeometry relative="1" as="geometry">
            <mxPoint x="1089" y="147" as="sourcePoint" />
            <mxPoint x="1191" y="96" as="targetPoint" />
          </mxGeometry>
        </mxCell>
        <mxCell id="zido_r1NeYuk4-eKhUF_-5" style="edgeStyle=none;rounded=0;orthogonalLoop=1;jettySize=auto;html=1;endArrow=open;endFill=0;endSize=16;startFill=0;fontSize=19;textShadow=1;" edge="1" parent="1" source="XmxRfXGQkaJ-KOJUpbj6-4" target="XmxRfXGQkaJ-KOJUpbj6-37">
          <mxGeometry relative="1" as="geometry">
            <mxPoint x="1099" y="157" as="sourcePoint" />
            <mxPoint x="1201" y="106" as="targetPoint" />
          </mxGeometry>
        </mxCell>
        <mxCell id="zido_r1NeYuk4-eKhUF_-6" style="edgeStyle=none;rounded=0;orthogonalLoop=1;jettySize=auto;html=1;endArrow=open;endFill=0;endSize=16;startFill=0;fontSize=19;textShadow=1;" edge="1" parent="1" source="XmxRfXGQkaJ-KOJUpbj6-4" target="XmxRfXGQkaJ-KOJUpbj6-77">
          <mxGeometry relative="1" as="geometry">
            <mxPoint x="1109" y="167" as="sourcePoint" />
            <mxPoint x="1211" y="116" as="targetPoint" />
          </mxGeometry>
        </mxCell>
        <mxCell id="zido_r1NeYuk4-eKhUF_-7" style="edgeStyle=none;rounded=0;orthogonalLoop=1;jettySize=auto;html=1;endArrow=open;endFill=0;endSize=16;startFill=0;fontSize=19;textShadow=1;" edge="1" parent="1" source="XmxRfXGQkaJ-KOJUpbj6-3" target="XmxRfXGQkaJ-KOJUpbj6-19">
          <mxGeometry relative="1" as="geometry">
            <mxPoint x="1119" y="177" as="sourcePoint" />
            <mxPoint x="1221" y="126" as="targetPoint" />
          </mxGeometry>
        </mxCell>
        <mxCell id="zido_r1NeYuk4-eKhUF_-8" style="edgeStyle=none;rounded=0;orthogonalLoop=1;jettySize=auto;html=1;endArrow=open;endFill=0;endSize=16;startFill=0;fontSize=19;textShadow=1;" edge="1" parent="1" source="XmxRfXGQkaJ-KOJUpbj6-3" target="XmxRfXGQkaJ-KOJUpbj6-11">
          <mxGeometry relative="1" as="geometry">
            <mxPoint x="1129" y="187" as="sourcePoint" />
            <mxPoint x="1231" y="136" as="targetPoint" />
          </mxGeometry>
        </mxCell>
      </root>
    </mxGraphModel>
  </diagram>
  <diagram id="gVzDPPo5zdeIx0sV6J7n" name="Đăng nhập">
    <mxGraphModel dx="562" dy="843" grid="0" gridSize="10" guides="1" tooltips="1" connect="1" arrows="1" fold="1" page="0" pageScale="1" pageWidth="850" pageHeight="1100" math="0" shadow="0">
      <root>
        <mxCell id="0" />
        <mxCell id="1" parent="0" />
        <mxCell id="UP4kdeEOlsNYjMZfJbsK-7" value="Đăng nhập" style="ellipse;whiteSpace=wrap;html=1;fontSize=19;fillColor=#fad7ac;strokeColor=#b46504;textShadow=1;" parent="1" vertex="1">
          <mxGeometry x="1146" y="483" width="140" height="70" as="geometry" />
        </mxCell>
        <mxCell id="UP4kdeEOlsNYjMZfJbsK-32" value="Lấy lại mật khẩu" style="ellipse;whiteSpace=wrap;html=1;fontSize=19;fillColor=#fad7ac;strokeColor=#b46504;textShadow=1;" parent="1" vertex="1">
          <mxGeometry x="1469" y="476" width="140" height="70" as="geometry" />
        </mxCell>
        <mxCell id="UP4kdeEOlsNYjMZfJbsK-35" style="edgeStyle=none;rounded=0;orthogonalLoop=1;jettySize=auto;html=1;dashed=1;endArrow=open;endFill=0;endSize=16;fontSize=19;textShadow=1;" parent="1" source="UP4kdeEOlsNYjMZfJbsK-32" target="UP4kdeEOlsNYjMZfJbsK-7" edge="1">
          <mxGeometry relative="1" as="geometry">
            <mxPoint x="1501" y="611" as="sourcePoint" />
            <mxPoint x="1317" y="731" as="targetPoint" />
          </mxGeometry>
        </mxCell>
        <mxCell id="UP4kdeEOlsNYjMZfJbsK-36" value="&amp;lt;&amp;lt;extend&amp;gt;&amp;gt;" style="edgeLabel;html=1;align=center;verticalAlign=middle;resizable=0;points=[];fontSize=19;textShadow=1;" parent="UP4kdeEOlsNYjMZfJbsK-35" vertex="1" connectable="0">
          <mxGeometry x="-0.0832" y="-2" relative="1" as="geometry">
            <mxPoint as="offset" />
          </mxGeometry>
        </mxCell>
        <mxCell id="WGPJaYIMNik4qL-6za6z-1" value="Cơ sở dữ liệu người dùng" style="shape=umlActor;verticalLabelPosition=bottom;verticalAlign=top;html=1;fontSize=19;fontStyle=1;textShadow=1;" parent="1" vertex="1">
          <mxGeometry x="1866" y="476" width="30" height="60" as="geometry" />
        </mxCell>
        <mxCell id="sfOXydkzIo0nYzjZ2gAJ-1" style="edgeStyle=none;rounded=0;orthogonalLoop=1;jettySize=auto;html=1;endArrow=open;endFill=0;endSize=16;startFill=0;fontSize=19;textShadow=1;" parent="1" source="UP4kdeEOlsNYjMZfJbsK-32" target="WGPJaYIMNik4qL-6za6z-1" edge="1">
          <mxGeometry relative="1" as="geometry">
            <mxPoint x="1010" y="289" as="sourcePoint" />
            <mxPoint x="1189" y="244" as="targetPoint" />
          </mxGeometry>
        </mxCell>
        <mxCell id="aohCuNAXsFXmSinOgpU4-1" value="Đăng kí" style="ellipse;whiteSpace=wrap;html=1;fontSize=19;fillColor=#fad7ac;strokeColor=#b46504;textShadow=1;" parent="1" vertex="1">
          <mxGeometry x="1469" y="356" width="140" height="70" as="geometry" />
        </mxCell>
        <mxCell id="aohCuNAXsFXmSinOgpU4-2" style="edgeStyle=none;rounded=0;orthogonalLoop=1;jettySize=auto;html=1;dashed=1;endArrow=open;endFill=0;endSize=16;fontSize=19;textShadow=1;" parent="1" source="aohCuNAXsFXmSinOgpU4-1" target="UP4kdeEOlsNYjMZfJbsK-7" edge="1">
          <mxGeometry relative="1" as="geometry">
            <mxPoint x="1499" y="365" as="sourcePoint" />
            <mxPoint x="1277" y="462" as="targetPoint" />
          </mxGeometry>
        </mxCell>
        <mxCell id="aohCuNAXsFXmSinOgpU4-3" value="&amp;lt;&amp;lt;extend&amp;gt;&amp;gt;" style="edgeLabel;html=1;align=center;verticalAlign=middle;resizable=0;points=[];fontSize=19;textShadow=1;" parent="aohCuNAXsFXmSinOgpU4-2" vertex="1" connectable="0">
          <mxGeometry x="-0.0832" y="-2" relative="1" as="geometry">
            <mxPoint as="offset" />
          </mxGeometry>
        </mxCell>
        <mxCell id="aohCuNAXsFXmSinOgpU4-4" style="edgeStyle=none;rounded=0;orthogonalLoop=1;jettySize=auto;html=1;endArrow=open;endFill=0;endSize=16;startFill=0;fontSize=19;textShadow=1;" parent="1" source="aohCuNAXsFXmSinOgpU4-1" target="WGPJaYIMNik4qL-6za6z-1" edge="1">
          <mxGeometry relative="1" as="geometry">
            <mxPoint x="1607" y="364" as="sourcePoint" />
            <mxPoint x="1890" y="479" as="targetPoint" />
          </mxGeometry>
        </mxCell>
        <mxCell id="qr7QJX1Fc9Z44blxEKQQ-2" value="Chỉnh sửa tài khoản" style="ellipse;whiteSpace=wrap;html=1;fontSize=19;fillColor=#fad7ac;strokeColor=#b46504;textShadow=1;" parent="1" vertex="1">
          <mxGeometry x="1469" y="610" width="140" height="70" as="geometry" />
        </mxCell>
        <mxCell id="qr7QJX1Fc9Z44blxEKQQ-3" value="Xóa tài khoản" style="ellipse;whiteSpace=wrap;html=1;fontSize=19;fillColor=#fad7ac;strokeColor=#b46504;textShadow=1;" parent="1" vertex="1">
          <mxGeometry x="1469" y="737" width="140" height="70" as="geometry" />
        </mxCell>
        <mxCell id="qr7QJX1Fc9Z44blxEKQQ-4" style="edgeStyle=none;rounded=0;orthogonalLoop=1;jettySize=auto;html=1;dashed=1;endArrow=open;endFill=0;endSize=16;fontSize=19;textShadow=1;" parent="1" source="qr7QJX1Fc9Z44blxEKQQ-2" target="UP4kdeEOlsNYjMZfJbsK-7" edge="1">
          <mxGeometry relative="1" as="geometry">
            <mxPoint x="1491" y="507" as="sourcePoint" />
            <mxPoint x="1271" y="422" as="targetPoint" />
          </mxGeometry>
        </mxCell>
        <mxCell id="qr7QJX1Fc9Z44blxEKQQ-5" value="&amp;lt;&amp;lt;extend&amp;gt;&amp;gt;" style="edgeLabel;html=1;align=center;verticalAlign=middle;resizable=0;points=[];fontSize=19;textShadow=1;" parent="qr7QJX1Fc9Z44blxEKQQ-4" vertex="1" connectable="0">
          <mxGeometry x="-0.0832" y="-2" relative="1" as="geometry">
            <mxPoint as="offset" />
          </mxGeometry>
        </mxCell>
        <mxCell id="qr7QJX1Fc9Z44blxEKQQ-6" style="edgeStyle=none;rounded=0;orthogonalLoop=1;jettySize=auto;html=1;dashed=1;endArrow=open;endFill=0;endSize=16;fontSize=19;textShadow=1;" parent="1" source="qr7QJX1Fc9Z44blxEKQQ-3" target="UP4kdeEOlsNYjMZfJbsK-7" edge="1">
          <mxGeometry relative="1" as="geometry">
            <mxPoint x="1501" y="517" as="sourcePoint" />
            <mxPoint x="1281" y="432" as="targetPoint" />
          </mxGeometry>
        </mxCell>
        <mxCell id="qr7QJX1Fc9Z44blxEKQQ-7" value="&amp;lt;&amp;lt;extend&amp;gt;&amp;gt;" style="edgeLabel;html=1;align=center;verticalAlign=middle;resizable=0;points=[];fontSize=19;textShadow=1;" parent="qr7QJX1Fc9Z44blxEKQQ-6" vertex="1" connectable="0">
          <mxGeometry x="-0.0832" y="-2" relative="1" as="geometry">
            <mxPoint as="offset" />
          </mxGeometry>
        </mxCell>
        <mxCell id="muZTMtij_igMEPmUsCAq-1" style="edgeStyle=none;rounded=0;orthogonalLoop=1;jettySize=auto;html=1;endArrow=open;endFill=0;endSize=16;startFill=0;fontSize=19;textShadow=1;" parent="1" source="qr7QJX1Fc9Z44blxEKQQ-2" target="WGPJaYIMNik4qL-6za6z-1" edge="1">
          <mxGeometry relative="1" as="geometry">
            <mxPoint x="1605" y="508" as="sourcePoint" />
            <mxPoint x="1882" y="411" as="targetPoint" />
          </mxGeometry>
        </mxCell>
        <mxCell id="muZTMtij_igMEPmUsCAq-2" style="edgeStyle=none;rounded=0;orthogonalLoop=1;jettySize=auto;html=1;endArrow=open;endFill=0;endSize=16;startFill=0;fontSize=19;textShadow=1;" parent="1" source="qr7QJX1Fc9Z44blxEKQQ-3" target="WGPJaYIMNik4qL-6za6z-1" edge="1">
          <mxGeometry relative="1" as="geometry">
            <mxPoint x="1615" y="518" as="sourcePoint" />
            <mxPoint x="1892" y="421" as="targetPoint" />
          </mxGeometry>
        </mxCell>
        <mxCell id="X5-nUdR_tQYxVcNY_WjR-1" value="Người dùng" style="shape=umlActor;verticalLabelPosition=bottom;verticalAlign=top;html=1;outlineConnect=0;fontSize=19;fontStyle=1;textShadow=1;" parent="1" vertex="1">
          <mxGeometry x="953" y="486" width="30" height="60" as="geometry" />
        </mxCell>
        <mxCell id="X5-nUdR_tQYxVcNY_WjR-2" style="edgeStyle=none;rounded=0;orthogonalLoop=1;jettySize=auto;html=1;endArrow=open;endFill=0;endSize=16;startFill=0;fontSize=19;textShadow=1;" parent="1" source="X5-nUdR_tQYxVcNY_WjR-1" target="UP4kdeEOlsNYjMZfJbsK-7" edge="1">
          <mxGeometry relative="1" as="geometry">
            <mxPoint x="1605" y="508" as="sourcePoint" />
            <mxPoint x="1882" y="411" as="targetPoint" />
          </mxGeometry>
        </mxCell>
      </root>
    </mxGraphModel>
  </diagram>
  <diagram id="yCKEZh7EiyJJz3NEywSl" name="Tra cứu phòng">
    <mxGraphModel dx="562" dy="843" grid="0" gridSize="10" guides="1" tooltips="1" connect="1" arrows="1" fold="1" page="0" pageScale="1" pageWidth="850" pageHeight="1100" math="0" shadow="0">
      <root>
        <mxCell id="0" />
        <mxCell id="1" parent="0" />
        <mxCell id="xR0AWiJEYKiXQDjG7llo-11" value="Tra cứu phòng" style="ellipse;whiteSpace=wrap;html=1;fontSize=19;fillColor=#ffcc99;strokeColor=#36393d;textShadow=1;" parent="1" vertex="1">
          <mxGeometry x="1180" y="894" width="140" height="70" as="geometry" />
        </mxCell>
        <mxCell id="xR0AWiJEYKiXQDjG7llo-51" value="Thuê phòng" style="ellipse;whiteSpace=wrap;html=1;fontSize=19;fillColor=#ffcc99;strokeColor=#36393d;textShadow=1;" parent="1" vertex="1">
          <mxGeometry x="1510" y="854" width="140" height="70" as="geometry" />
        </mxCell>
        <mxCell id="xR0AWiJEYKiXQDjG7llo-52" style="edgeStyle=none;rounded=0;orthogonalLoop=1;jettySize=auto;html=1;dashed=1;endArrow=open;endFill=0;endSize=16;fontSize=19;textShadow=1;" parent="1" source="xR0AWiJEYKiXQDjG7llo-51" target="xR0AWiJEYKiXQDjG7llo-11" edge="1">
          <mxGeometry relative="1" as="geometry">
            <mxPoint x="1493" y="685" as="sourcePoint" />
            <mxPoint x="1307" y="585" as="targetPoint" />
          </mxGeometry>
        </mxCell>
        <mxCell id="xR0AWiJEYKiXQDjG7llo-53" value="&amp;lt;&amp;lt;extend&amp;gt;&amp;gt;" style="edgeLabel;html=1;align=center;verticalAlign=middle;resizable=0;points=[];fontSize=19;textShadow=1;" parent="xR0AWiJEYKiXQDjG7llo-52" vertex="1" connectable="0">
          <mxGeometry x="-0.0832" y="-2" relative="1" as="geometry">
            <mxPoint as="offset" />
          </mxGeometry>
        </mxCell>
        <mxCell id="R0E9zO4f6JUI-rbz_ot2-1" value="Đăng nhập" style="ellipse;whiteSpace=wrap;html=1;fontSize=19;fillColor=#ffcc99;strokeColor=#36393d;textShadow=1;" parent="1" vertex="1">
          <mxGeometry x="1835" y="724" width="140" height="70" as="geometry" />
        </mxCell>
        <mxCell id="R0E9zO4f6JUI-rbz_ot2-3" style="edgeStyle=none;rounded=0;orthogonalLoop=1;jettySize=auto;html=1;dashed=1;endArrow=open;endFill=0;endSize=16;fontSize=19;textShadow=1;" parent="1" source="xR0AWiJEYKiXQDjG7llo-51" target="R0E9zO4f6JUI-rbz_ot2-1" edge="1">
          <mxGeometry relative="1" as="geometry">
            <mxPoint x="1476" y="939" as="sourcePoint" />
            <mxPoint x="1330" y="939" as="targetPoint" />
          </mxGeometry>
        </mxCell>
        <mxCell id="R0E9zO4f6JUI-rbz_ot2-4" value="&amp;lt;&amp;lt;include&amp;gt;&amp;gt;" style="edgeLabel;html=1;align=center;verticalAlign=middle;resizable=0;points=[];fontSize=19;textShadow=1;" parent="R0E9zO4f6JUI-rbz_ot2-3" vertex="1" connectable="0">
          <mxGeometry x="-0.0832" y="-2" relative="1" as="geometry">
            <mxPoint as="offset" />
          </mxGeometry>
        </mxCell>
        <mxCell id="R0E9zO4f6JUI-rbz_ot2-5" value="Tra cứu trên map" style="ellipse;whiteSpace=wrap;html=1;fontSize=19;fillColor=#ffcc99;strokeColor=#36393d;textShadow=1;" parent="1" vertex="1">
          <mxGeometry x="1510" y="986" width="140" height="70" as="geometry" />
        </mxCell>
        <mxCell id="R0E9zO4f6JUI-rbz_ot2-7" style="edgeStyle=none;rounded=0;orthogonalLoop=1;jettySize=auto;html=1;dashed=1;endArrow=open;endFill=0;endSize=16;fontSize=19;textShadow=1;" parent="1" source="R0E9zO4f6JUI-rbz_ot2-5" target="xR0AWiJEYKiXQDjG7llo-11" edge="1">
          <mxGeometry relative="1" as="geometry">
            <mxPoint x="1476" y="939" as="sourcePoint" />
            <mxPoint x="1330" y="939" as="targetPoint" />
          </mxGeometry>
        </mxCell>
        <mxCell id="R0E9zO4f6JUI-rbz_ot2-8" value="&amp;lt;&amp;lt;extend&amp;gt;&amp;gt;" style="edgeLabel;html=1;align=center;verticalAlign=middle;resizable=0;points=[];fontSize=19;textShadow=1;" parent="R0E9zO4f6JUI-rbz_ot2-7" vertex="1" connectable="0">
          <mxGeometry x="-0.0832" y="-2" relative="1" as="geometry">
            <mxPoint as="offset" />
          </mxGeometry>
        </mxCell>
        <mxCell id="R0E9zO4f6JUI-rbz_ot2-9" value="Xem danh sách đề xuất" style="ellipse;whiteSpace=wrap;html=1;fontSize=19;fillColor=#ffcc99;strokeColor=#36393d;textShadow=1;" parent="1" vertex="1">
          <mxGeometry x="1510" y="1110" width="140" height="70" as="geometry" />
        </mxCell>
        <mxCell id="R0E9zO4f6JUI-rbz_ot2-10" value="Thêm/xóa danh sách yêu thích" style="ellipse;whiteSpace=wrap;html=1;fontSize=19;fillColor=#ffcc99;strokeColor=#36393d;textShadow=1;" parent="1" vertex="1">
          <mxGeometry x="1510" y="718" width="140" height="70" as="geometry" />
        </mxCell>
        <mxCell id="R0E9zO4f6JUI-rbz_ot2-11" style="edgeStyle=none;rounded=0;orthogonalLoop=1;jettySize=auto;html=1;dashed=1;endArrow=open;endFill=0;endSize=16;fontSize=19;textShadow=1;" parent="1" source="R0E9zO4f6JUI-rbz_ot2-10" target="R0E9zO4f6JUI-rbz_ot2-1" edge="1">
          <mxGeometry relative="1" as="geometry">
            <mxPoint x="1660" y="899" as="sourcePoint" />
            <mxPoint x="1810" y="901" as="targetPoint" />
          </mxGeometry>
        </mxCell>
        <mxCell id="R0E9zO4f6JUI-rbz_ot2-12" value="&amp;lt;&amp;lt;include&amp;gt;&amp;gt;" style="edgeLabel;html=1;align=center;verticalAlign=middle;resizable=0;points=[];fontSize=19;textShadow=1;" parent="R0E9zO4f6JUI-rbz_ot2-11" vertex="1" connectable="0">
          <mxGeometry x="-0.0832" y="-2" relative="1" as="geometry">
            <mxPoint as="offset" />
          </mxGeometry>
        </mxCell>
        <mxCell id="R0E9zO4f6JUI-rbz_ot2-13" style="edgeStyle=none;rounded=0;orthogonalLoop=1;jettySize=auto;html=1;dashed=1;endArrow=open;endFill=0;endSize=16;fontSize=19;textShadow=1;" parent="1" source="R0E9zO4f6JUI-rbz_ot2-10" target="xR0AWiJEYKiXQDjG7llo-11" edge="1">
          <mxGeometry relative="1" as="geometry">
            <mxPoint x="1522" y="907" as="sourcePoint" />
            <mxPoint x="1328" y="931" as="targetPoint" />
          </mxGeometry>
        </mxCell>
        <mxCell id="R0E9zO4f6JUI-rbz_ot2-14" value="&amp;lt;&amp;lt;extend&amp;gt;&amp;gt;" style="edgeLabel;html=1;align=center;verticalAlign=middle;resizable=0;points=[];fontSize=19;textShadow=1;" parent="R0E9zO4f6JUI-rbz_ot2-13" vertex="1" connectable="0">
          <mxGeometry x="-0.0832" y="-2" relative="1" as="geometry">
            <mxPoint as="offset" />
          </mxGeometry>
        </mxCell>
        <mxCell id="R0E9zO4f6JUI-rbz_ot2-15" style="edgeStyle=none;rounded=0;orthogonalLoop=1;jettySize=auto;html=1;dashed=1;endArrow=open;endFill=0;endSize=16;fontSize=19;textShadow=1;" parent="1" source="R0E9zO4f6JUI-rbz_ot2-9" target="xR0AWiJEYKiXQDjG7llo-11" edge="1">
          <mxGeometry relative="1" as="geometry">
            <mxPoint x="1532" y="917" as="sourcePoint" />
            <mxPoint x="1338" y="941" as="targetPoint" />
          </mxGeometry>
        </mxCell>
        <mxCell id="R0E9zO4f6JUI-rbz_ot2-16" value="&amp;lt;&amp;lt;extend&amp;gt;&amp;gt;" style="edgeLabel;html=1;align=center;verticalAlign=middle;resizable=0;points=[];fontSize=19;textShadow=1;" parent="R0E9zO4f6JUI-rbz_ot2-15" vertex="1" connectable="0">
          <mxGeometry x="-0.0832" y="-2" relative="1" as="geometry">
            <mxPoint as="offset" />
          </mxGeometry>
        </mxCell>
        <mxCell id="EAq1RaRJWNHmHR5qDTAq-1" value="Cơ sở dữ liệu khách sạn" style="shape=umlActor;verticalLabelPosition=bottom;verticalAlign=top;html=1;fontSize=19;fontStyle=1;textShadow=1;" parent="1" vertex="1">
          <mxGeometry x="1565" y="565" width="30" height="60" as="geometry" />
        </mxCell>
        <mxCell id="HfwR_0feDHtFneKIIEvm-1" style="edgeStyle=none;rounded=0;orthogonalLoop=1;jettySize=auto;html=1;endArrow=none;endFill=0;endSize=10;startFill=0;fontSize=19;textShadow=1;" parent="1" source="xR0AWiJEYKiXQDjG7llo-11" target="EAq1RaRJWNHmHR5qDTAq-1" edge="1">
          <mxGeometry relative="1" as="geometry">
            <mxPoint x="1588" y="622" as="sourcePoint" />
            <mxPoint x="1880" y="482" as="targetPoint" />
          </mxGeometry>
        </mxCell>
        <mxCell id="hcext0Ooea3FRnVLiD86-1" value="Thanh toán" style="ellipse;whiteSpace=wrap;html=1;fontSize=19;fillColor=#ffcc99;strokeColor=#36393d;textShadow=1;" parent="1" vertex="1">
          <mxGeometry x="1883" y="846" width="140" height="70" as="geometry" />
        </mxCell>
        <mxCell id="hcext0Ooea3FRnVLiD86-2" style="edgeStyle=none;rounded=0;orthogonalLoop=1;jettySize=auto;html=1;dashed=1;endArrow=open;endFill=0;endSize=16;fontSize=19;textShadow=1;" parent="1" source="hcext0Ooea3FRnVLiD86-1" target="xR0AWiJEYKiXQDjG7llo-51" edge="1">
          <mxGeometry relative="1" as="geometry">
            <mxPoint x="1941" y="1086" as="sourcePoint" />
            <mxPoint x="1321" y="956" as="targetPoint" />
          </mxGeometry>
        </mxCell>
        <mxCell id="hcext0Ooea3FRnVLiD86-3" value="&amp;lt;&amp;lt;extend&amp;gt;&amp;gt;" style="edgeLabel;html=1;align=center;verticalAlign=middle;resizable=0;points=[];fontSize=19;textShadow=1;" parent="hcext0Ooea3FRnVLiD86-2" vertex="1" connectable="0">
          <mxGeometry x="-0.0832" y="-2" relative="1" as="geometry">
            <mxPoint as="offset" />
          </mxGeometry>
        </mxCell>
        <mxCell id="0MC1MzN0JitfgiLwTuxb-1" value="Xem danh sách yêu thích" style="ellipse;whiteSpace=wrap;html=1;fontSize=19;fillColor=#ffcc99;strokeColor=#36393d;textShadow=1;" parent="1" vertex="1">
          <mxGeometry x="1510" y="1229" width="140" height="70" as="geometry" />
        </mxCell>
        <mxCell id="0MC1MzN0JitfgiLwTuxb-2" style="edgeStyle=none;rounded=0;orthogonalLoop=1;jettySize=auto;html=1;dashed=1;endArrow=open;endFill=0;endSize=16;fontSize=19;textShadow=1;" parent="1" source="0MC1MzN0JitfgiLwTuxb-1" target="xR0AWiJEYKiXQDjG7llo-11" edge="1">
          <mxGeometry relative="1" as="geometry">
            <mxPoint x="1547" y="1127" as="sourcePoint" />
            <mxPoint x="1303" y="967" as="targetPoint" />
          </mxGeometry>
        </mxCell>
        <mxCell id="0MC1MzN0JitfgiLwTuxb-3" value="&amp;lt;&amp;lt;extend&amp;gt;&amp;gt;" style="edgeLabel;html=1;align=center;verticalAlign=middle;resizable=0;points=[];fontSize=19;textShadow=1;" parent="0MC1MzN0JitfgiLwTuxb-2" vertex="1" connectable="0">
          <mxGeometry x="-0.0832" y="-2" relative="1" as="geometry">
            <mxPoint as="offset" />
          </mxGeometry>
        </mxCell>
        <mxCell id="dnqhTYLFz0yAzTqbBRyd-2" value="Theo dõi phòng đã đặt" style="ellipse;whiteSpace=wrap;html=1;fontSize=19;fillColor=#ffcc99;strokeColor=#36393d;textShadow=1;" parent="1" vertex="1">
          <mxGeometry x="1513" y="414" width="140" height="70" as="geometry" />
        </mxCell>
        <mxCell id="dnqhTYLFz0yAzTqbBRyd-5" value="Thanh toán" style="ellipse;whiteSpace=wrap;html=1;fontSize=19;fillColor=#FFCC99;strokeColor=light-dark(#000000, #c98531);textShadow=1;" parent="1" vertex="1">
          <mxGeometry x="1824" y="319" width="140" height="70" as="geometry" />
        </mxCell>
        <mxCell id="dnqhTYLFz0yAzTqbBRyd-6" style="edgeStyle=none;rounded=0;orthogonalLoop=1;jettySize=auto;html=1;dashed=1;endArrow=open;endFill=0;endSize=16;fontSize=19;textShadow=1;" parent="1" source="dnqhTYLFz0yAzTqbBRyd-5" target="dnqhTYLFz0yAzTqbBRyd-2" edge="1">
          <mxGeometry relative="1" as="geometry">
            <mxPoint x="1929" y="831" as="sourcePoint" />
            <mxPoint x="1711" y="903" as="targetPoint" />
          </mxGeometry>
        </mxCell>
        <mxCell id="dnqhTYLFz0yAzTqbBRyd-7" value="&amp;lt;&amp;lt;extend&amp;gt;&amp;gt;" style="edgeLabel;html=1;align=center;verticalAlign=middle;resizable=0;points=[];fontSize=19;textShadow=1;" parent="dnqhTYLFz0yAzTqbBRyd-6" vertex="1" connectable="0">
          <mxGeometry x="-0.0832" y="-2" relative="1" as="geometry">
            <mxPoint as="offset" />
          </mxGeometry>
        </mxCell>
        <mxCell id="dnqhTYLFz0yAzTqbBRyd-8" value="Hủy phòng" style="ellipse;whiteSpace=wrap;html=1;fontSize=19;fillColor=#ffcc99;strokeColor=#36393d;textShadow=1;" parent="1" vertex="1">
          <mxGeometry x="1824" y="441" width="140" height="70" as="geometry" />
        </mxCell>
        <mxCell id="dnqhTYLFz0yAzTqbBRyd-9" style="edgeStyle=none;rounded=0;orthogonalLoop=1;jettySize=auto;html=1;dashed=1;endArrow=open;endFill=0;endSize=16;fontSize=19;textShadow=1;" parent="1" source="dnqhTYLFz0yAzTqbBRyd-8" target="dnqhTYLFz0yAzTqbBRyd-2" edge="1">
          <mxGeometry relative="1" as="geometry">
            <mxPoint x="1892" y="378" as="sourcePoint" />
            <mxPoint x="1655" y="442" as="targetPoint" />
          </mxGeometry>
        </mxCell>
        <mxCell id="dnqhTYLFz0yAzTqbBRyd-10" value="&amp;lt;&amp;lt;extend&amp;gt;&amp;gt;" style="edgeLabel;html=1;align=center;verticalAlign=middle;resizable=0;points=[];fontSize=19;textShadow=1;" parent="dnqhTYLFz0yAzTqbBRyd-9" vertex="1" connectable="0">
          <mxGeometry x="-0.0832" y="-2" relative="1" as="geometry">
            <mxPoint as="offset" />
          </mxGeometry>
        </mxCell>
        <mxCell id="dnqhTYLFz0yAzTqbBRyd-11" value="Đánh giá" style="ellipse;whiteSpace=wrap;html=1;fontSize=19;fillColor=#ffcc99;strokeColor=#36393d;textShadow=1;" parent="1" vertex="1">
          <mxGeometry x="1824" y="555" width="140" height="70" as="geometry" />
        </mxCell>
        <mxCell id="dnqhTYLFz0yAzTqbBRyd-12" style="edgeStyle=none;rounded=0;orthogonalLoop=1;jettySize=auto;html=1;dashed=1;endArrow=open;endFill=0;endSize=16;fontSize=19;textShadow=1;" parent="1" source="dnqhTYLFz0yAzTqbBRyd-11" target="dnqhTYLFz0yAzTqbBRyd-2" edge="1">
          <mxGeometry relative="1" as="geometry">
            <mxPoint x="1884" y="479" as="sourcePoint" />
            <mxPoint x="1662" y="464" as="targetPoint" />
          </mxGeometry>
        </mxCell>
        <mxCell id="dnqhTYLFz0yAzTqbBRyd-13" value="&amp;lt;&amp;lt;extend&amp;gt;&amp;gt;" style="edgeLabel;html=1;align=center;verticalAlign=middle;resizable=0;points=[];fontSize=19;textShadow=1;" parent="dnqhTYLFz0yAzTqbBRyd-12" vertex="1" connectable="0">
          <mxGeometry x="-0.0832" y="-2" relative="1" as="geometry">
            <mxPoint as="offset" />
          </mxGeometry>
        </mxCell>
        <mxCell id="mgQk2syHQwTr--IGRr-t-1" style="edgeStyle=none;rounded=0;orthogonalLoop=1;jettySize=auto;html=1;dashed=1;endArrow=open;endFill=0;endSize=16;fontSize=19;textShadow=1;" parent="1" source="dnqhTYLFz0yAzTqbBRyd-2" target="R0E9zO4f6JUI-rbz_ot2-1" edge="1">
          <mxGeometry relative="1" as="geometry">
            <mxPoint x="1660" y="764" as="sourcePoint" />
            <mxPoint x="1845" y="768" as="targetPoint" />
          </mxGeometry>
        </mxCell>
        <mxCell id="mgQk2syHQwTr--IGRr-t-2" value="&amp;lt;&amp;lt;include&amp;gt;&amp;gt;" style="edgeLabel;html=1;align=center;verticalAlign=middle;resizable=0;points=[];fontSize=19;textShadow=1;" parent="mgQk2syHQwTr--IGRr-t-1" vertex="1" connectable="0">
          <mxGeometry x="-0.0832" y="-2" relative="1" as="geometry">
            <mxPoint as="offset" />
          </mxGeometry>
        </mxCell>
        <mxCell id="mgQk2syHQwTr--IGRr-t-3" style="edgeStyle=none;rounded=0;orthogonalLoop=1;jettySize=auto;html=1;dashed=1;endArrow=open;endFill=0;endSize=16;fontSize=19;textShadow=1;" parent="1" source="dnqhTYLFz0yAzTqbBRyd-2" target="xR0AWiJEYKiXQDjG7llo-11" edge="1">
          <mxGeometry relative="1" as="geometry">
            <mxPoint x="1542" y="789" as="sourcePoint" />
            <mxPoint x="1308" y="913" as="targetPoint" />
          </mxGeometry>
        </mxCell>
        <mxCell id="mgQk2syHQwTr--IGRr-t-4" value="&amp;lt;&amp;lt;extend&amp;gt;&amp;gt;" style="edgeLabel;html=1;align=center;verticalAlign=middle;resizable=0;points=[];fontSize=19;textShadow=1;" parent="mgQk2syHQwTr--IGRr-t-3" vertex="1" connectable="0">
          <mxGeometry x="-0.0832" y="-2" relative="1" as="geometry">
            <mxPoint as="offset" />
          </mxGeometry>
        </mxCell>
        <mxCell id="mgQk2syHQwTr--IGRr-t-5" value="Liên hệ với chủ phòng" style="ellipse;whiteSpace=wrap;html=1;fontSize=19;fillColor=#ffcc99;strokeColor=#36393d;textShadow=1;" parent="1" vertex="1">
          <mxGeometry x="1824" y="209" width="140" height="70" as="geometry" />
        </mxCell>
        <mxCell id="mgQk2syHQwTr--IGRr-t-6" style="edgeStyle=none;rounded=0;orthogonalLoop=1;jettySize=auto;html=1;dashed=1;endArrow=open;endFill=0;endSize=16;fontSize=19;textShadow=1;" parent="1" source="mgQk2syHQwTr--IGRr-t-5" target="dnqhTYLFz0yAzTqbBRyd-2" edge="1">
          <mxGeometry relative="1" as="geometry">
            <mxPoint x="1844" y="382" as="sourcePoint" />
            <mxPoint x="1653" y="441" as="targetPoint" />
          </mxGeometry>
        </mxCell>
        <mxCell id="mgQk2syHQwTr--IGRr-t-7" value="&amp;lt;&amp;lt;extend&amp;gt;&amp;gt;" style="edgeLabel;html=1;align=center;verticalAlign=middle;resizable=0;points=[];fontSize=19;textShadow=1;" parent="mgQk2syHQwTr--IGRr-t-6" vertex="1" connectable="0">
          <mxGeometry x="-0.0832" y="-2" relative="1" as="geometry">
            <mxPoint as="offset" />
          </mxGeometry>
        </mxCell>
        <mxCell id="pjdudn4sB0Xax_NTSZe0-1" value="Cơ sở dữ liệu đánh giá" style="shape=umlActor;verticalLabelPosition=bottom;verticalAlign=top;html=1;fontSize=19;fontStyle=1;textShadow=1;" parent="1" vertex="1">
          <mxGeometry x="2105" y="560" width="30" height="60" as="geometry" />
        </mxCell>
        <mxCell id="pjdudn4sB0Xax_NTSZe0-2" style="edgeStyle=none;rounded=0;orthogonalLoop=1;jettySize=auto;html=1;endArrow=open;endFill=0;endSize=16;startFill=0;fontSize=19;textShadow=1;" parent="1" source="dnqhTYLFz0yAzTqbBRyd-11" target="pjdudn4sB0Xax_NTSZe0-1" edge="1">
          <mxGeometry relative="1" as="geometry">
            <mxPoint x="1697" y="65" as="sourcePoint" />
            <mxPoint x="1992" y="-82" as="targetPoint" />
          </mxGeometry>
        </mxCell>
        <mxCell id="zm7BXVrgSDBs5Hu1YesN-1" style="edgeStyle=none;rounded=0;orthogonalLoop=1;jettySize=auto;html=1;dashed=1;endArrow=open;endFill=0;endSize=16;fontSize=19;textShadow=1;exitX=1;exitY=0;exitDx=0;exitDy=0;" parent="1" source="0MC1MzN0JitfgiLwTuxb-1" target="R0E9zO4f6JUI-rbz_ot2-1" edge="1">
          <mxGeometry relative="1" as="geometry">
            <mxPoint x="1660" y="764" as="sourcePoint" />
            <mxPoint x="1845" y="768" as="targetPoint" />
          </mxGeometry>
        </mxCell>
        <mxCell id="zm7BXVrgSDBs5Hu1YesN-2" value="&amp;lt;&amp;lt;include&amp;gt;&amp;gt;" style="edgeLabel;html=1;align=center;verticalAlign=middle;resizable=0;points=[];fontSize=19;textShadow=1;" parent="zm7BXVrgSDBs5Hu1YesN-1" vertex="1" connectable="0">
          <mxGeometry x="-0.0832" y="-2" relative="1" as="geometry">
            <mxPoint as="offset" />
          </mxGeometry>
        </mxCell>
        <mxCell id="02FvwNc3GW-f5VOiOrcl-1" value="Du khách" style="shape=umlActor;verticalLabelPosition=bottom;verticalAlign=top;html=1;outlineConnect=0;fontSize=19;fontStyle=1;textShadow=1;" parent="1" vertex="1">
          <mxGeometry x="1007" y="899" width="30" height="60" as="geometry" />
        </mxCell>
        <mxCell id="02FvwNc3GW-f5VOiOrcl-2" style="edgeStyle=none;rounded=0;orthogonalLoop=1;jettySize=auto;html=1;endArrow=open;endFill=0;endSize=16;startFill=0;fontSize=19;textShadow=1;" parent="1" source="02FvwNc3GW-f5VOiOrcl-1" target="xR0AWiJEYKiXQDjG7llo-11" edge="1">
          <mxGeometry relative="1" as="geometry">
            <mxPoint x="1974" y="600" as="sourcePoint" />
            <mxPoint x="2115" y="600" as="targetPoint" />
          </mxGeometry>
        </mxCell>
      </root>
    </mxGraphModel>
  </diagram>
  <diagram id="OCnsuWIxAZApN3sMe2nH" name="Tra cứu phương tiện">
    <mxGraphModel dx="562" dy="1243" grid="0" gridSize="10" guides="1" tooltips="1" connect="1" arrows="1" fold="1" page="0" pageScale="1" pageWidth="850" pageHeight="1100" math="0" shadow="0">
      <root>
        <mxCell id="0" />
        <mxCell id="1" parent="0" />
        <mxCell id="hsAbLj33jeA_thwzsIE2-1" value="Tra cứu phương tiện" style="ellipse;whiteSpace=wrap;html=1;fontSize=19;fillColor=#fad7ac;strokeColor=#b46504;textShadow=1;" parent="1" vertex="1">
          <mxGeometry x="1185" y="420" width="140" height="70" as="geometry" />
        </mxCell>
        <mxCell id="hsAbLj33jeA_thwzsIE2-2" value="Thuê phương tiện" style="ellipse;whiteSpace=wrap;html=1;fontSize=19;fillColor=#fad7ac;strokeColor=#b46504;textShadow=1;" parent="1" vertex="1">
          <mxGeometry x="1524" y="420" width="140" height="70" as="geometry" />
        </mxCell>
        <mxCell id="hsAbLj33jeA_thwzsIE2-3" style="edgeStyle=none;rounded=0;orthogonalLoop=1;jettySize=auto;html=1;dashed=1;endArrow=open;endFill=0;endSize=16;fontSize=19;textShadow=1;" parent="1" source="hsAbLj33jeA_thwzsIE2-2" target="hsAbLj33jeA_thwzsIE2-1" edge="1">
          <mxGeometry relative="1" as="geometry">
            <mxPoint x="1690" y="354" as="sourcePoint" />
            <mxPoint x="1587" y="400" as="targetPoint" />
          </mxGeometry>
        </mxCell>
        <mxCell id="hsAbLj33jeA_thwzsIE2-4" value="&amp;lt;&amp;lt;extend&amp;gt;&amp;gt;" style="edgeLabel;html=1;align=center;verticalAlign=middle;resizable=0;points=[];fontSize=19;textShadow=1;" parent="hsAbLj33jeA_thwzsIE2-3" vertex="1" connectable="0">
          <mxGeometry x="-0.0832" y="-2" relative="1" as="geometry">
            <mxPoint as="offset" />
          </mxGeometry>
        </mxCell>
        <mxCell id="5b7blzjKvPyAcp_FWiPZ-5" value="Đăng nhập" style="ellipse;whiteSpace=wrap;html=1;fontSize=19;fillColor=#fad7ac;strokeColor=#b46504;textShadow=1;" parent="1" vertex="1">
          <mxGeometry x="1835" y="318" width="140" height="70" as="geometry" />
        </mxCell>
        <mxCell id="5b7blzjKvPyAcp_FWiPZ-6" style="edgeStyle=none;rounded=0;orthogonalLoop=1;jettySize=auto;html=1;dashed=1;endArrow=open;endFill=0;endSize=16;fontSize=19;textShadow=1;" parent="1" source="hsAbLj33jeA_thwzsIE2-2" target="5b7blzjKvPyAcp_FWiPZ-5" edge="1">
          <mxGeometry relative="1" as="geometry">
            <mxPoint x="1476" y="939" as="sourcePoint" />
            <mxPoint x="1330" y="939" as="targetPoint" />
          </mxGeometry>
        </mxCell>
        <mxCell id="5b7blzjKvPyAcp_FWiPZ-7" value="&amp;lt;&amp;lt;include&amp;gt;&amp;gt;" style="edgeLabel;html=1;align=center;verticalAlign=middle;resizable=0;points=[];fontSize=19;textShadow=1;" parent="5b7blzjKvPyAcp_FWiPZ-6" vertex="1" connectable="0">
          <mxGeometry x="-0.0832" y="-2" relative="1" as="geometry">
            <mxPoint as="offset" />
          </mxGeometry>
        </mxCell>
        <mxCell id="5b7blzjKvPyAcp_FWiPZ-11" value="Xem danh sách đề xuất" style="ellipse;whiteSpace=wrap;html=1;fontSize=19;fillColor=#fad7ac;strokeColor=#b46504;textShadow=1;" parent="1" vertex="1">
          <mxGeometry x="1521" y="536" width="140" height="70" as="geometry" />
        </mxCell>
        <mxCell id="5b7blzjKvPyAcp_FWiPZ-17" style="edgeStyle=none;rounded=0;orthogonalLoop=1;jettySize=auto;html=1;dashed=1;endArrow=open;endFill=0;endSize=16;fontSize=19;textShadow=1;" parent="1" source="5b7blzjKvPyAcp_FWiPZ-11" target="hsAbLj33jeA_thwzsIE2-1" edge="1">
          <mxGeometry relative="1" as="geometry">
            <mxPoint x="1532" y="917" as="sourcePoint" />
            <mxPoint x="1338" y="941" as="targetPoint" />
          </mxGeometry>
        </mxCell>
        <mxCell id="5b7blzjKvPyAcp_FWiPZ-18" value="&amp;lt;&amp;lt;extend&amp;gt;&amp;gt;" style="edgeLabel;html=1;align=center;verticalAlign=middle;resizable=0;points=[];fontSize=19;textShadow=1;" parent="5b7blzjKvPyAcp_FWiPZ-17" vertex="1" connectable="0">
          <mxGeometry x="-0.0832" y="-2" relative="1" as="geometry">
            <mxPoint as="offset" />
          </mxGeometry>
        </mxCell>
        <mxCell id="5b7blzjKvPyAcp_FWiPZ-19" value="Nhà cung cấp dịch vụ di chuyển" style="shape=umlActor;verticalLabelPosition=bottom;verticalAlign=top;html=1;fontSize=19;fontStyle=1;textShadow=1;" parent="1" vertex="1">
          <mxGeometry x="1576" y="175" width="30" height="60" as="geometry" />
        </mxCell>
        <mxCell id="5b7blzjKvPyAcp_FWiPZ-20" style="edgeStyle=none;rounded=0;orthogonalLoop=1;jettySize=auto;html=1;endArrow=open;endFill=0;endSize=16;startFill=0;fontSize=19;textShadow=1;" parent="1" source="hsAbLj33jeA_thwzsIE2-1" target="5b7blzjKvPyAcp_FWiPZ-19" edge="1">
          <mxGeometry relative="1" as="geometry">
            <mxPoint x="1582" y="902" as="sourcePoint" />
            <mxPoint x="1874" y="762" as="targetPoint" />
          </mxGeometry>
        </mxCell>
        <mxCell id="0YxaPNFgnfjGTRJpnSX4-1" value="Theo dõi phương tiện đã thuê" style="ellipse;whiteSpace=wrap;html=1;fontSize=19;fillColor=#fad7ac;strokeColor=#b46504;textShadow=1;" parent="1" vertex="1">
          <mxGeometry x="1524" y="24" width="140" height="70" as="geometry" />
        </mxCell>
        <mxCell id="0YxaPNFgnfjGTRJpnSX4-5" value="Nhà cung cấp dịch vụ di chuyển" style="shape=umlActor;verticalLabelPosition=bottom;verticalAlign=top;html=1;fontSize=19;fontStyle=1;textShadow=1;" parent="1" vertex="1">
          <mxGeometry x="1890" y="-214" width="30" height="60" as="geometry" />
        </mxCell>
        <mxCell id="0YxaPNFgnfjGTRJpnSX4-6" style="edgeStyle=none;rounded=0;orthogonalLoop=1;jettySize=auto;html=1;endArrow=open;endFill=0;endSize=16;startFill=0;fontSize=19;textShadow=1;" parent="1" source="0YxaPNFgnfjGTRJpnSX4-1" target="0YxaPNFgnfjGTRJpnSX4-5" edge="1">
          <mxGeometry relative="1" as="geometry">
            <mxPoint x="1980" y="969" as="sourcePoint" />
            <mxPoint x="2272" y="829" as="targetPoint" />
          </mxGeometry>
        </mxCell>
        <mxCell id="0YxaPNFgnfjGTRJpnSX4-7" value="Thanh toán" style="ellipse;whiteSpace=wrap;html=1;fontSize=19;fillColor=#fad7ac;strokeColor=#b46504;textShadow=1;" parent="1" vertex="1">
          <mxGeometry x="1835" y="-71" width="140" height="70" as="geometry" />
        </mxCell>
        <mxCell id="0YxaPNFgnfjGTRJpnSX4-8" style="edgeStyle=none;rounded=0;orthogonalLoop=1;jettySize=auto;html=1;dashed=1;endArrow=open;endFill=0;endSize=16;fontSize=19;textShadow=1;" parent="1" source="0YxaPNFgnfjGTRJpnSX4-7" target="0YxaPNFgnfjGTRJpnSX4-1" edge="1">
          <mxGeometry relative="1" as="geometry">
            <mxPoint x="1940" y="441" as="sourcePoint" />
            <mxPoint x="1722" y="513" as="targetPoint" />
          </mxGeometry>
        </mxCell>
        <mxCell id="0YxaPNFgnfjGTRJpnSX4-9" value="&amp;lt;&amp;lt;extend&amp;gt;&amp;gt;" style="edgeLabel;html=1;align=center;verticalAlign=middle;resizable=0;points=[];fontSize=19;textShadow=1;" parent="0YxaPNFgnfjGTRJpnSX4-8" vertex="1" connectable="0">
          <mxGeometry x="-0.0832" y="-2" relative="1" as="geometry">
            <mxPoint as="offset" />
          </mxGeometry>
        </mxCell>
        <mxCell id="0YxaPNFgnfjGTRJpnSX4-10" value="Hủy dịch vụ" style="ellipse;whiteSpace=wrap;html=1;fontSize=19;fillColor=#fad7ac;strokeColor=#b46504;textShadow=1;" parent="1" vertex="1">
          <mxGeometry x="1835" y="51" width="140" height="70" as="geometry" />
        </mxCell>
        <mxCell id="0YxaPNFgnfjGTRJpnSX4-11" style="edgeStyle=none;rounded=0;orthogonalLoop=1;jettySize=auto;html=1;dashed=1;endArrow=open;endFill=0;endSize=16;fontSize=19;textShadow=1;" parent="1" source="0YxaPNFgnfjGTRJpnSX4-10" target="0YxaPNFgnfjGTRJpnSX4-1" edge="1">
          <mxGeometry relative="1" as="geometry">
            <mxPoint x="1903" y="-12" as="sourcePoint" />
            <mxPoint x="1666" y="52" as="targetPoint" />
          </mxGeometry>
        </mxCell>
        <mxCell id="0YxaPNFgnfjGTRJpnSX4-12" value="&amp;lt;&amp;lt;extend&amp;gt;&amp;gt;" style="edgeLabel;html=1;align=center;verticalAlign=middle;resizable=0;points=[];fontSize=19;textShadow=1;" parent="0YxaPNFgnfjGTRJpnSX4-11" vertex="1" connectable="0">
          <mxGeometry x="-0.0832" y="-2" relative="1" as="geometry">
            <mxPoint as="offset" />
          </mxGeometry>
        </mxCell>
        <mxCell id="0YxaPNFgnfjGTRJpnSX4-13" value="Đánh giá" style="ellipse;whiteSpace=wrap;html=1;fontSize=19;fillColor=#fad7ac;strokeColor=#b46504;textShadow=1;" parent="1" vertex="1">
          <mxGeometry x="1835" y="165" width="140" height="70" as="geometry" />
        </mxCell>
        <mxCell id="0YxaPNFgnfjGTRJpnSX4-14" style="edgeStyle=none;rounded=0;orthogonalLoop=1;jettySize=auto;html=1;dashed=1;endArrow=open;endFill=0;endSize=16;fontSize=19;textShadow=1;" parent="1" source="0YxaPNFgnfjGTRJpnSX4-13" target="0YxaPNFgnfjGTRJpnSX4-1" edge="1">
          <mxGeometry relative="1" as="geometry">
            <mxPoint x="1895" y="89" as="sourcePoint" />
            <mxPoint x="1673" y="74" as="targetPoint" />
          </mxGeometry>
        </mxCell>
        <mxCell id="0YxaPNFgnfjGTRJpnSX4-15" value="&amp;lt;&amp;lt;extend&amp;gt;&amp;gt;" style="edgeLabel;html=1;align=center;verticalAlign=middle;resizable=0;points=[];fontSize=19;textShadow=1;" parent="0YxaPNFgnfjGTRJpnSX4-14" vertex="1" connectable="0">
          <mxGeometry x="-0.0832" y="-2" relative="1" as="geometry">
            <mxPoint as="offset" />
          </mxGeometry>
        </mxCell>
        <mxCell id="0YxaPNFgnfjGTRJpnSX4-16" style="edgeStyle=none;rounded=0;orthogonalLoop=1;jettySize=auto;html=1;dashed=1;endArrow=open;endFill=0;endSize=16;fontSize=19;textShadow=1;exitX=0;exitY=0.5;exitDx=0;exitDy=0;" parent="1" source="0YxaPNFgnfjGTRJpnSX4-1" target="hsAbLj33jeA_thwzsIE2-1" edge="1">
          <mxGeometry relative="1" as="geometry">
            <mxPoint x="1563" y="670" as="sourcePoint" />
            <mxPoint x="1306" y="493" as="targetPoint" />
          </mxGeometry>
        </mxCell>
        <mxCell id="0YxaPNFgnfjGTRJpnSX4-17" value="&amp;lt;&amp;lt;extend&amp;gt;&amp;gt;" style="edgeLabel;html=1;align=center;verticalAlign=middle;resizable=0;points=[];fontSize=19;textShadow=1;" parent="0YxaPNFgnfjGTRJpnSX4-16" vertex="1" connectable="0">
          <mxGeometry x="-0.0832" y="-2" relative="1" as="geometry">
            <mxPoint as="offset" />
          </mxGeometry>
        </mxCell>
        <mxCell id="0YxaPNFgnfjGTRJpnSX4-18" style="edgeStyle=none;rounded=0;orthogonalLoop=1;jettySize=auto;html=1;dashed=1;endArrow=open;endFill=0;endSize=16;fontSize=19;textShadow=1;" parent="1" source="0YxaPNFgnfjGTRJpnSX4-1" target="5b7blzjKvPyAcp_FWiPZ-5" edge="1">
          <mxGeometry relative="1" as="geometry">
            <mxPoint x="1671" y="357" as="sourcePoint" />
            <mxPoint x="1845" y="361" as="targetPoint" />
          </mxGeometry>
        </mxCell>
        <mxCell id="0YxaPNFgnfjGTRJpnSX4-19" value="&amp;lt;&amp;lt;include&amp;gt;&amp;gt;" style="edgeLabel;html=1;align=center;verticalAlign=middle;resizable=0;points=[];fontSize=19;textShadow=1;" parent="0YxaPNFgnfjGTRJpnSX4-18" vertex="1" connectable="0">
          <mxGeometry x="-0.0832" y="-2" relative="1" as="geometry">
            <mxPoint as="offset" />
          </mxGeometry>
        </mxCell>
        <mxCell id="jJyBFuD-9bPBdU9HQ-CT-1" value="Cơ sở dữ liệu đánh giá" style="shape=umlActor;verticalLabelPosition=bottom;verticalAlign=top;html=1;fontSize=19;fontStyle=1;textShadow=1;" parent="1" vertex="1">
          <mxGeometry x="2105" y="170" width="30" height="60" as="geometry" />
        </mxCell>
        <mxCell id="jJyBFuD-9bPBdU9HQ-CT-2" style="edgeStyle=none;rounded=0;orthogonalLoop=1;jettySize=auto;html=1;endArrow=open;endFill=0;endSize=16;startFill=0;fontSize=19;textShadow=1;" parent="1" source="0YxaPNFgnfjGTRJpnSX4-13" target="jJyBFuD-9bPBdU9HQ-CT-1" edge="1">
          <mxGeometry relative="1" as="geometry">
            <mxPoint x="2016" y="299" as="sourcePoint" />
            <mxPoint x="2212" y="72" as="targetPoint" />
          </mxGeometry>
        </mxCell>
        <mxCell id="gAEwsMQQqgFI9Jw9V99m-1" style="edgeStyle=none;rounded=0;orthogonalLoop=1;jettySize=auto;html=1;endArrow=open;endFill=0;endSize=16;startFill=0;fontSize=19;textShadow=1;" parent="1" source="CR-QWQFcRTWnEewahYWI-1" target="hsAbLj33jeA_thwzsIE2-1" edge="1">
          <mxGeometry relative="1" as="geometry">
            <mxPoint x="1964" y="590" as="sourcePoint" />
            <mxPoint x="1193" y="261" as="targetPoint" />
          </mxGeometry>
        </mxCell>
        <mxCell id="CR-QWQFcRTWnEewahYWI-1" value="Du khách" style="shape=umlActor;verticalLabelPosition=bottom;verticalAlign=top;html=1;outlineConnect=0;fontSize=19;fontStyle=1;textShadow=1;" parent="1" vertex="1">
          <mxGeometry x="1039" y="428" width="30" height="60" as="geometry" />
        </mxCell>
      </root>
    </mxGraphModel>
  </diagram>
  <diagram id="Lg0kSeYTq5_znjLogrNi" name="Cho thuê phòng">
    <mxGraphModel dx="969" dy="1391" grid="0" gridSize="10" guides="1" tooltips="1" connect="1" arrows="1" fold="1" page="0" pageScale="1" pageWidth="850" pageHeight="1100" math="0" shadow="0">
      <root>
        <mxCell id="0" />
        <mxCell id="1" parent="0" />
        <mxCell id="wd4_cDUFSvyjsP0B03pd-1" value="Cho thuê phòng" style="ellipse;whiteSpace=wrap;html=1;fontSize=19;fillColor=#fad7ac;strokeColor=#b46504;textShadow=1;" parent="1" vertex="1">
          <mxGeometry x="897" y="-74" width="140" height="70" as="geometry" />
        </mxCell>
        <mxCell id="wd4_cDUFSvyjsP0B03pd-2" value="Theo dõi phòng đang cho thuê" style="ellipse;whiteSpace=wrap;html=1;fontSize=19;fillColor=#fad7ac;strokeColor=#b46504;textShadow=1;" parent="1" vertex="1">
          <mxGeometry x="1188" y="-74" width="140" height="70" as="geometry" />
        </mxCell>
        <mxCell id="wd4_cDUFSvyjsP0B03pd-3" value="Chỉnh sửa thông tin" style="ellipse;whiteSpace=wrap;html=1;fontSize=19;fillColor=#fad7ac;strokeColor=#b46504;textShadow=1;" parent="1" vertex="1">
          <mxGeometry x="1491.3500000000001" y="-165" width="140" height="70" as="geometry" />
        </mxCell>
        <mxCell id="wd4_cDUFSvyjsP0B03pd-4" value="Quản lý đơn đặt phòng" style="ellipse;whiteSpace=wrap;html=1;fontSize=19;fillColor=#fad7ac;strokeColor=#b46504;textShadow=1;" parent="1" vertex="1">
          <mxGeometry x="1496.3500000000001" y="-72" width="140" height="70" as="geometry" />
        </mxCell>
        <mxCell id="wd4_cDUFSvyjsP0B03pd-5" value="Phản hồi du khách" style="ellipse;whiteSpace=wrap;html=1;fontSize=19;fillColor=#fad7ac;strokeColor=#b46504;textShadow=1;" parent="1" vertex="1">
          <mxGeometry x="1496.3500000000001" y="28" width="140" height="70" as="geometry" />
        </mxCell>
        <mxCell id="wd4_cDUFSvyjsP0B03pd-6" style="edgeStyle=none;rounded=0;orthogonalLoop=1;jettySize=auto;html=1;dashed=1;endArrow=open;endFill=0;endSize=16;fontSize=19;textShadow=1;" parent="1" source="wd4_cDUFSvyjsP0B03pd-4" target="wd4_cDUFSvyjsP0B03pd-2" edge="1">
          <mxGeometry relative="1" as="geometry">
            <mxPoint x="1499" y="235" as="sourcePoint" />
            <mxPoint x="1314" y="332" as="targetPoint" />
          </mxGeometry>
        </mxCell>
        <mxCell id="wd4_cDUFSvyjsP0B03pd-7" value="&amp;lt;&amp;lt;extend&amp;gt;&amp;gt;" style="edgeLabel;html=1;align=center;verticalAlign=middle;resizable=0;points=[];fontSize=19;textShadow=1;" parent="wd4_cDUFSvyjsP0B03pd-6" vertex="1" connectable="0">
          <mxGeometry x="-0.0832" y="-2" relative="1" as="geometry">
            <mxPoint as="offset" />
          </mxGeometry>
        </mxCell>
        <mxCell id="wd4_cDUFSvyjsP0B03pd-8" style="edgeStyle=none;rounded=0;orthogonalLoop=1;jettySize=auto;html=1;dashed=1;endArrow=open;endFill=0;endSize=16;fontSize=19;textShadow=1;" parent="1" source="wd4_cDUFSvyjsP0B03pd-5" target="wd4_cDUFSvyjsP0B03pd-2" edge="1">
          <mxGeometry relative="1" as="geometry">
            <mxPoint x="1509" y="245" as="sourcePoint" />
            <mxPoint x="1324" y="342" as="targetPoint" />
          </mxGeometry>
        </mxCell>
        <mxCell id="wd4_cDUFSvyjsP0B03pd-9" value="&amp;lt;&amp;lt;extend&amp;gt;&amp;gt;" style="edgeLabel;html=1;align=center;verticalAlign=middle;resizable=0;points=[];fontSize=19;textShadow=1;" parent="wd4_cDUFSvyjsP0B03pd-8" vertex="1" connectable="0">
          <mxGeometry x="-0.0832" y="-2" relative="1" as="geometry">
            <mxPoint as="offset" />
          </mxGeometry>
        </mxCell>
        <mxCell id="wd4_cDUFSvyjsP0B03pd-10" style="edgeStyle=none;rounded=0;orthogonalLoop=1;jettySize=auto;html=1;dashed=1;endArrow=open;endFill=0;endSize=16;fontSize=19;textShadow=1;" parent="1" source="wd4_cDUFSvyjsP0B03pd-3" target="wd4_cDUFSvyjsP0B03pd-2" edge="1">
          <mxGeometry relative="1" as="geometry">
            <mxPoint x="1519" y="255" as="sourcePoint" />
            <mxPoint x="1334" y="352" as="targetPoint" />
          </mxGeometry>
        </mxCell>
        <mxCell id="wd4_cDUFSvyjsP0B03pd-11" value="&amp;lt;&amp;lt;extend&amp;gt;&amp;gt;" style="edgeLabel;html=1;align=center;verticalAlign=middle;resizable=0;points=[];fontSize=19;textShadow=1;" parent="wd4_cDUFSvyjsP0B03pd-10" vertex="1" connectable="0">
          <mxGeometry x="-0.0832" y="-2" relative="1" as="geometry">
            <mxPoint as="offset" />
          </mxGeometry>
        </mxCell>
        <mxCell id="wd4_cDUFSvyjsP0B03pd-12" style="edgeStyle=none;rounded=0;orthogonalLoop=1;jettySize=auto;html=1;dashed=1;endArrow=open;endFill=0;endSize=16;fontSize=19;textShadow=1;" parent="1" source="wd4_cDUFSvyjsP0B03pd-2" target="wd4_cDUFSvyjsP0B03pd-1" edge="1">
          <mxGeometry relative="1" as="geometry">
            <mxPoint x="1568" y="-22" as="sourcePoint" />
            <mxPoint x="1338" y="-27" as="targetPoint" />
          </mxGeometry>
        </mxCell>
        <mxCell id="wd4_cDUFSvyjsP0B03pd-13" value="&amp;lt;&amp;lt;extend&amp;gt;&amp;gt;" style="edgeLabel;html=1;align=center;verticalAlign=middle;resizable=0;points=[];fontSize=19;textShadow=1;" parent="wd4_cDUFSvyjsP0B03pd-12" vertex="1" connectable="0">
          <mxGeometry x="-0.0832" y="-2" relative="1" as="geometry">
            <mxPoint as="offset" />
          </mxGeometry>
        </mxCell>
        <mxCell id="Rqq88ooAbm_9EVaJX2Hm-1" value="Đăng nhập" style="ellipse;whiteSpace=wrap;html=1;fontSize=19;fillColor=#fad7ac;strokeColor=#b46504;textShadow=1;" parent="1" vertex="1">
          <mxGeometry x="1188" y="-206" width="140" height="70" as="geometry" />
        </mxCell>
        <mxCell id="hmzfDuJSjAcr204n0_Yf-1" style="edgeStyle=none;rounded=0;orthogonalLoop=1;jettySize=auto;html=1;dashed=1;endArrow=open;endFill=0;endSize=16;fontSize=19;textShadow=1;" parent="1" source="wd4_cDUFSvyjsP0B03pd-1" target="Rqq88ooAbm_9EVaJX2Hm-1" edge="1">
          <mxGeometry relative="1" as="geometry">
            <mxPoint x="1650" y="754" as="sourcePoint" />
            <mxPoint x="1835" y="758" as="targetPoint" />
          </mxGeometry>
        </mxCell>
        <mxCell id="hmzfDuJSjAcr204n0_Yf-2" value="&amp;lt;&amp;lt;include&amp;gt;&amp;gt;" style="edgeLabel;html=1;align=center;verticalAlign=middle;resizable=0;points=[];fontSize=19;textShadow=1;" parent="hmzfDuJSjAcr204n0_Yf-1" vertex="1" connectable="0">
          <mxGeometry x="-0.0832" y="-2" relative="1" as="geometry">
            <mxPoint as="offset" />
          </mxGeometry>
        </mxCell>
        <mxCell id="cA9r-o-EmaC4wKEAG2Ij-1" value="Cơ sở dữ liệu khách sạn" style="shape=umlActor;verticalLabelPosition=bottom;verticalAlign=top;html=1;fontSize=19;fontStyle=1;textShadow=1;" parent="1" vertex="1">
          <mxGeometry x="1785.42" y="-137" width="30" height="60" as="geometry" />
        </mxCell>
        <mxCell id="GvXRkJjSc1CZZjRQliek-1" style="edgeStyle=none;rounded=0;orthogonalLoop=1;jettySize=auto;html=1;endArrow=open;endFill=0;endSize=16;startFill=0;fontSize=19;textShadow=1;" parent="1" source="wd4_cDUFSvyjsP0B03pd-3" target="cA9r-o-EmaC4wKEAG2Ij-1" edge="1">
          <mxGeometry relative="1" as="geometry">
            <mxPoint x="1219.3500000000001" y="891" as="sourcePoint" />
            <mxPoint x="1503.3500000000001" y="603" as="targetPoint" />
          </mxGeometry>
        </mxCell>
        <mxCell id="GvXRkJjSc1CZZjRQliek-2" style="edgeStyle=none;rounded=0;orthogonalLoop=1;jettySize=auto;html=1;endArrow=open;endFill=0;endSize=16;startFill=0;fontSize=19;textShadow=1;" parent="1" source="wd4_cDUFSvyjsP0B03pd-4" target="cA9r-o-EmaC4wKEAG2Ij-1" edge="1">
          <mxGeometry relative="1" as="geometry">
            <mxPoint x="1229.3500000000001" y="901" as="sourcePoint" />
            <mxPoint x="1513.3500000000001" y="613" as="targetPoint" />
          </mxGeometry>
        </mxCell>
        <mxCell id="IAUXBDKqjKR7TeKPwM8Z-2" value="Cơ sở dữ liệu đánh giá" style="shape=umlActor;verticalLabelPosition=bottom;verticalAlign=top;html=1;fontSize=19;fontStyle=1;textShadow=1;" parent="1" vertex="1">
          <mxGeometry x="1785.42" y="4" width="30" height="60" as="geometry" />
        </mxCell>
        <mxCell id="IAUXBDKqjKR7TeKPwM8Z-4" style="edgeStyle=none;rounded=0;orthogonalLoop=1;jettySize=auto;html=1;endArrow=open;endFill=0;endSize=16;startFill=0;fontSize=19;textShadow=1;" parent="1" source="wd4_cDUFSvyjsP0B03pd-5" target="IAUXBDKqjKR7TeKPwM8Z-2" edge="1">
          <mxGeometry relative="1" as="geometry">
            <mxPoint x="1642.3500000000001" y="-39" as="sourcePoint" />
            <mxPoint x="1930.3500000000001" y="-89" as="targetPoint" />
          </mxGeometry>
        </mxCell>
        <mxCell id="rH3w5hwiCakZcRlFRmbX-1" value="Chủ khách sạn" style="shape=umlActor;verticalLabelPosition=bottom;verticalAlign=top;html=1;outlineConnect=0;fontSize=19;fontStyle=1;textShadow=1;" parent="1" vertex="1">
          <mxGeometry x="798" y="-69" width="30" height="60" as="geometry" />
        </mxCell>
        <mxCell id="rH3w5hwiCakZcRlFRmbX-2" style="edgeStyle=none;rounded=0;orthogonalLoop=1;jettySize=auto;html=1;endArrow=open;endFill=0;endSize=16;startFill=0;fontSize=19;textShadow=1;" parent="1" source="rH3w5hwiCakZcRlFRmbX-1" target="wd4_cDUFSvyjsP0B03pd-1" edge="1">
          <mxGeometry relative="1" as="geometry">
            <mxPoint x="1707" y="75" as="sourcePoint" />
            <mxPoint x="817" y="-124" as="targetPoint" />
          </mxGeometry>
        </mxCell>
        <mxCell id="8P4iYKOFMHyED0tPwsEn-1" value="Authentication System" style="shape=umlActor;verticalLabelPosition=bottom;verticalAlign=top;html=1;fontSize=19;fontStyle=1;textShadow=1;" parent="1" vertex="1">
          <mxGeometry x="1240" y="28" width="30" height="60" as="geometry" />
        </mxCell>
        <mxCell id="8P4iYKOFMHyED0tPwsEn-2" style="edgeStyle=none;rounded=0;orthogonalLoop=1;jettySize=auto;html=1;endArrow=open;endFill=0;endSize=16;startFill=0;fontSize=19;textShadow=1;" parent="1" source="wd4_cDUFSvyjsP0B03pd-1" target="8P4iYKOFMHyED0tPwsEn-1" edge="1">
          <mxGeometry relative="1" as="geometry">
            <mxPoint x="838" y="-29" as="sourcePoint" />
            <mxPoint x="907" y="-29" as="targetPoint" />
          </mxGeometry>
        </mxCell>
        <mxCell id="TRlDKk3IheIzEcyBpwkC-1" value="Cơ sở dữ liệu khách sạn" style="shape=umlActor;verticalLabelPosition=bottom;verticalAlign=top;html=1;fontSize=19;fontStyle=1;textShadow=1;" vertex="1" parent="1">
          <mxGeometry x="1240" y="160" width="30" height="60" as="geometry" />
        </mxCell>
        <mxCell id="TRlDKk3IheIzEcyBpwkC-3" style="edgeStyle=none;rounded=0;orthogonalLoop=1;jettySize=auto;html=1;endArrow=open;endFill=0;endSize=16;startFill=0;fontSize=19;textShadow=1;" edge="1" parent="1" source="wd4_cDUFSvyjsP0B03pd-1" target="TRlDKk3IheIzEcyBpwkC-1">
          <mxGeometry relative="1" as="geometry">
            <mxPoint x="1640" y="-113" as="sourcePoint" />
            <mxPoint x="1795" y="-98" as="targetPoint" />
          </mxGeometry>
        </mxCell>
      </root>
    </mxGraphModel>
  </diagram>
  <diagram id="TzToAQTNteKH8AqijmZZ" name="Actor">
    <mxGraphModel dx="1360" dy="843" grid="1" gridSize="10" guides="1" tooltips="1" connect="1" arrows="1" fold="1" page="1" pageScale="1" pageWidth="850" pageHeight="1100" math="0" shadow="0">
      <root>
        <mxCell id="0" />
        <mxCell id="1" parent="0" />
        <mxCell id="nVXj8dCkR97P_cMrDePS-1" value="Du khách" style="shape=umlActor;verticalLabelPosition=bottom;verticalAlign=top;html=1;outlineConnect=0;fontSize=19;fontStyle=1;textShadow=1;" parent="1" vertex="1">
          <mxGeometry x="650" y="748" width="30" height="60" as="geometry" />
        </mxCell>
        <mxCell id="nVXj8dCkR97P_cMrDePS-2" value="Người dùng" style="shape=umlActor;verticalLabelPosition=bottom;verticalAlign=top;html=1;outlineConnect=0;fontSize=19;fontStyle=1;textShadow=1;" parent="1" vertex="1">
          <mxGeometry x="580" y="568" width="30" height="60" as="geometry" />
        </mxCell>
        <mxCell id="nVXj8dCkR97P_cMrDePS-3" value="Chủ khách sạn" style="shape=umlActor;verticalLabelPosition=bottom;verticalAlign=top;html=1;outlineConnect=0;fontSize=19;fontStyle=1;textShadow=1;" parent="1" vertex="1">
          <mxGeometry x="490" y="748" width="30" height="60" as="geometry" />
        </mxCell>
        <mxCell id="nVXj8dCkR97P_cMrDePS-4" value="Nhà cung cấp dịch vụ di chuyển" style="shape=umlActor;verticalLabelPosition=bottom;verticalAlign=top;html=1;outlineConnect=0;fontSize=19;fontStyle=1;textShadow=1;" parent="1" vertex="1">
          <mxGeometry x="820" y="568" width="30" height="60" as="geometry" />
        </mxCell>
        <mxCell id="nVXj8dCkR97P_cMrDePS-5" value="Hệ thống thanh toán" style="shape=umlActor;verticalLabelPosition=bottom;verticalAlign=top;html=1;outlineConnect=0;fontSize=19;fontStyle=1;textShadow=1;" parent="1" vertex="1">
          <mxGeometry x="1090" y="568" width="30" height="60" as="geometry" />
        </mxCell>
        <mxCell id="nVXj8dCkR97P_cMrDePS-6" value="AuthenticationSystem" style="shape=umlActor;verticalLabelPosition=bottom;verticalAlign=top;html=1;outlineConnect=0;fontSize=19;fontStyle=1;textShadow=1;" parent="1" vertex="1">
          <mxGeometry x="1320" y="568" width="30" height="60" as="geometry" />
        </mxCell>
        <mxCell id="nVXj8dCkR97P_cMrDePS-7" value="Google map API" style="shape=umlActor;verticalLabelPosition=bottom;verticalAlign=top;html=1;outlineConnect=0;fontSize=19;fontStyle=1;textShadow=1;" parent="1" vertex="1">
          <mxGeometry x="1530" y="568" width="30" height="60" as="geometry" />
        </mxCell>
        <mxCell id="nVXj8dCkR97P_cMrDePS-8" value="Cơ sở dữ liệu đánh giá" style="shape=umlActor;verticalLabelPosition=bottom;verticalAlign=top;html=1;outlineConnect=0;fontSize=19;fontStyle=1;textShadow=1;" parent="1" vertex="1">
          <mxGeometry x="1990" y="748" width="30" height="60" as="geometry" />
        </mxCell>
        <mxCell id="nVXj8dCkR97P_cMrDePS-9" value="Cơ sở dữ liệu người dùng" style="shape=umlActor;verticalLabelPosition=bottom;verticalAlign=top;html=1;outlineConnect=0;fontSize=19;fontStyle=1;textShadow=1;" parent="1" vertex="1">
          <mxGeometry x="1500" y="748" width="30" height="60" as="geometry" />
        </mxCell>
        <mxCell id="nVXj8dCkR97P_cMrDePS-10" value="Cơ sở dữ liệu khách sạn" style="shape=umlActor;verticalLabelPosition=bottom;verticalAlign=top;html=1;outlineConnect=0;fontSize=19;fontStyle=1;textShadow=1;" parent="1" vertex="1">
          <mxGeometry x="1750" y="748" width="30" height="60" as="geometry" />
        </mxCell>
        <mxCell id="nVXj8dCkR97P_cMrDePS-11" value="Hệ quản trị cơ sở dữ liệu" style="shape=umlActor;verticalLabelPosition=bottom;verticalAlign=top;html=1;outlineConnect=0;fontSize=19;fontStyle=1;textShadow=1;" parent="1" vertex="1">
          <mxGeometry x="1750" y="568" width="30" height="60" as="geometry" />
        </mxCell>
        <mxCell id="zF_UMAbHAt0SwwVcbUeF-1" style="rounded=0;orthogonalLoop=1;jettySize=auto;html=1;endArrow=block;endFill=0;strokeWidth=1;endSize=16;fontSize=19;fontStyle=1;textShadow=1;" parent="1" source="nVXj8dCkR97P_cMrDePS-9" edge="1">
          <mxGeometry relative="1" as="geometry">
            <mxPoint x="1044" y="165" as="sourcePoint" />
            <mxPoint x="1720" y="670" as="targetPoint" />
          </mxGeometry>
        </mxCell>
        <mxCell id="zF_UMAbHAt0SwwVcbUeF-3" style="rounded=0;orthogonalLoop=1;jettySize=auto;html=1;endArrow=block;endFill=0;strokeWidth=1;endSize=16;fontSize=19;fontStyle=1;textShadow=1;" parent="1" source="nVXj8dCkR97P_cMrDePS-10" edge="1">
          <mxGeometry relative="1" as="geometry">
            <mxPoint x="1540" y="777" as="sourcePoint" />
            <mxPoint x="1765" y="670" as="targetPoint" />
          </mxGeometry>
        </mxCell>
        <mxCell id="zF_UMAbHAt0SwwVcbUeF-4" style="rounded=0;orthogonalLoop=1;jettySize=auto;html=1;endArrow=block;endFill=0;strokeWidth=1;endSize=16;fontSize=19;fontStyle=1;textShadow=1;" parent="1" source="nVXj8dCkR97P_cMrDePS-8" edge="1">
          <mxGeometry relative="1" as="geometry">
            <mxPoint x="1550" y="787" as="sourcePoint" />
            <mxPoint x="1820" y="670" as="targetPoint" />
          </mxGeometry>
        </mxCell>
        <mxCell id="zF_UMAbHAt0SwwVcbUeF-8" style="rounded=0;orthogonalLoop=1;jettySize=auto;html=1;endArrow=block;endFill=0;strokeWidth=1;endSize=16;fontSize=19;fontStyle=1;textShadow=1;" parent="1" source="nVXj8dCkR97P_cMrDePS-3" edge="1">
          <mxGeometry relative="1" as="geometry">
            <mxPoint x="1540" y="780" as="sourcePoint" />
            <mxPoint x="590" y="670" as="targetPoint" />
          </mxGeometry>
        </mxCell>
        <mxCell id="zF_UMAbHAt0SwwVcbUeF-9" style="rounded=0;orthogonalLoop=1;jettySize=auto;html=1;endArrow=block;endFill=0;strokeWidth=1;endSize=16;fontSize=19;fontStyle=1;textShadow=1;" parent="1" source="nVXj8dCkR97P_cMrDePS-1" edge="1">
          <mxGeometry relative="1" as="geometry">
            <mxPoint x="530" y="759" as="sourcePoint" />
            <mxPoint x="600" y="670" as="targetPoint" />
          </mxGeometry>
        </mxCell>
      </root>
    </mxGraphModel>
  </diagram>
</mxfile>
